<?xml version="1.0" standalone="no"?>
<!DOCTYPE svg PUBLIC "-//W3C//DTD SVG 20010904//EN"
 "http://www.w3.org/TR/2001/REC-SVG-20010904/DTD/svg10.dtd">
<svg version="1.0" xmlns="http://www.w3.org/2000/svg"
 width="4154.000000pt" height="4154.000000pt" viewBox="0 0 4154.000000 4154.000000"
 preserveAspectRatio="xMidYMid meet">

<g transform="translate(0.000000,4154.000000) scale(0.100000,-0.100000)"
fill="#000000" stroke="none">
<path d="M20511 41373 c20 -177 29 -221 65 -311 46 -117 75 -253 129 -622 10
-63 31 -173 47 -245 56 -244 67 -303 97 -522 39 -283 57 -373 86 -440 30 -67
58 -183 80 -326 8 -60 22 -138 29 -175 8 -37 17 -94 20 -127 12 -103 56 -347
76 -420 28 -101 46 -202 75 -419 27 -206 53 -342 87 -446 11 -36 26 -83 33
-105 20 -63 52 -234 80 -425 41 -281 71 -443 119 -625 42 -162 69 -297 96
-485 7 -47 23 -130 35 -185 33 -139 60 -283 90 -470 37 -236 53 -307 95 -440
21 -66 44 -156 50 -200 7 -43 25 -117 42 -163 46 -131 38 -201 -29 -263 -52
-49 -85 -58 -235 -69 -228 -17 -284 -36 -314 -107 -25 -58 -19 -105 46 -393
17 -74 40 -182 51 -240 11 -58 36 -170 55 -250 20 -79 42 -190 50 -245 34
-236 58 -367 86 -475 30 -110 36 -140 71 -310 20 -97 53 -282 71 -390 7 -48
26 -115 41 -150 54 -130 105 -333 140 -555 27 -179 40 -246 103 -540 23 -104
52 -248 66 -320 53 -275 118 -552 151 -644 8 -25 22 -73 30 -108 49 -209 -18
-258 -231 -174 -57 22 -157 50 -234 66 -163 32 -232 61 -255 105 -10 19 -22
88 -31 168 -21 201 -41 294 -88 417 -44 113 -55 162 -81 350 -35 263 -77 475
-115 579 -26 71 -37 118 -60 248 -11 62 -27 142 -35 178 -7 36 -24 115 -35
175 -12 61 -37 171 -56 245 -32 128 -45 207 -94 550 -37 263 -46 301 -89 390
-50 104 -77 208 -91 348 -17 170 -39 303 -66 404 -45 169 -74 321 -89 473 -24
235 -35 281 -134 579 -30 88 -49 178 -71 331 -19 134 -59 322 -101 483 -49
188 -55 221 -79 397 -36 269 -51 351 -81 445 -17 52 -35 102 -39 110 -17 33
-61 276 -85 475 -33 272 -48 352 -94 499 -46 142 -52 175 -86 406 -14 98 -49
272 -80 395 -42 167 -66 295 -100 531 -42 289 -48 320 -88 425 -63 165 -84
262 -107 494 -16 162 -26 220 -75 414 -24 97 -51 223 -60 281 -40 253 -56 342
-79 421 -70 241 -95 367 -136 664 -19 146 -39 266 -61 373 l-10 52 -52 0 c-59
0 -383 -30 -652 -61 -712 -80 -1481 -210 -2200 -370 -275 -62 -787 -189 -838
-208 -27 -10 -27 -12 -13 -38 8 -16 28 -46 46 -68 45 -56 69 -107 95 -199 33
-118 41 -134 86 -174 47 -42 64 -72 109 -192 17 -47 60 -143 95 -215 85 -176
92 -191 115 -260 21 -60 58 -125 73 -125 11 0 71 -132 91 -200 10 -35 32 -75
61 -110 42 -50 94 -145 110 -202 21 -75 55 -140 97 -188 46 -51 83 -128 95
-195 15 -83 40 -143 87 -213 66 -97 82 -127 107 -207 11 -35 24 -67 29 -70 15
-9 87 -137 105 -186 9 -24 26 -73 37 -109 28 -90 60 -149 102 -188 30 -28 76
-120 76 -153 0 -25 63 -155 91 -186 36 -42 57 -88 94 -203 33 -102 65 -168
104 -212 36 -42 44 -58 82 -160 17 -46 51 -117 76 -158 25 -41 61 -122 80
-180 43 -128 62 -166 102 -204 21 -20 39 -55 57 -110 44 -137 76 -210 110
-246 17 -19 39 -48 47 -65 16 -32 71 -174 82 -213 4 -12 22 -42 40 -67 43 -56
64 -98 105 -210 18 -49 39 -97 45 -105 36 -45 87 -157 111 -244 19 -67 38
-113 60 -142 42 -55 61 -93 86 -168 24 -74 70 -169 104 -215 13 -19 40 -82 58
-140 18 -58 47 -128 65 -156 58 -95 84 -158 89 -223 4 -61 4 -63 -34 -100 -32
-32 -54 -43 -124 -61 -57 -15 -103 -35 -140 -61 -30 -21 -71 -44 -90 -53 -55
-23 -120 -85 -120 -113 0 -15 16 -42 40 -68 22 -23 54 -74 71 -112 44 -99 69
-143 105 -191 17 -23 37 -65 44 -95 17 -70 59 -151 109 -212 23 -26 41 -51 41
-55 0 -3 7 -36 14 -73 17 -80 33 -112 98 -201 28 -37 63 -101 78 -141 15 -41
50 -116 77 -168 28 -51 58 -120 69 -153 21 -71 146 -319 178 -355 44 -49 68
-92 83 -148 16 -63 36 -105 98 -207 23 -38 48 -88 55 -110 15 -49 63 -138 100
-185 36 -46 74 -123 90 -185 17 -66 42 -114 91 -178 23 -31 48 -80 60 -120 12
-37 36 -89 54 -115 45 -66 68 -114 99 -209 15 -45 40 -99 56 -121 44 -61 74
-128 109 -238 17 -56 38 -107 47 -115 27 -22 70 -92 84 -134 25 -81 100 -222
145 -274 84 -98 109 -178 72 -234 -28 -44 -83 -52 -214 -34 -98 14 -120 14
-180 1 -91 -19 -220 -20 -264 -1 -55 23 -95 77 -123 167 -13 44 -42 109 -64
143 -47 75 -90 167 -126 267 -31 86 -64 146 -96 175 -31 28 -56 81 -70 150
-15 71 -46 136 -108 225 -25 36 -60 103 -79 150 -19 47 -56 124 -84 171 -29
52 -66 138 -90 214 -37 114 -46 132 -94 186 -36 40 -63 84 -81 131 -16 39 -52
111 -81 160 -29 49 -53 91 -53 94 0 3 -11 29 -24 57 -13 29 -38 84 -54 124
-16 40 -45 94 -65 120 -47 65 -81 134 -106 218 -11 39 -35 92 -53 119 -64 96
-78 122 -118 232 -28 76 -54 126 -81 159 -47 57 -74 107 -100 184 -31 95 -65
164 -112 226 -44 59 -59 94 -111 265 -15 50 -37 99 -54 120 -41 49 -66 101
-97 205 -35 114 -45 134 -100 195 -55 62 -79 108 -100 193 -18 70 -26 85 -96
175 -43 56 -55 84 -93 222 -9 31 -34 79 -57 110 -53 71 -86 137 -100 199 -5
27 -22 67 -37 89 -15 22 -48 71 -74 108 -32 48 -58 106 -86 190 -28 83 -56
145 -89 196 -27 41 -66 115 -87 164 -21 49 -60 125 -87 170 -56 94 -106 198
-144 305 -16 46 -43 96 -67 125 -46 56 -68 97 -93 174 -24 73 -49 122 -84 162
-41 48 -67 103 -91 198 -26 100 -45 139 -103 211 -53 65 -68 93 -108 203 -17
47 -50 116 -75 153 -41 65 -81 160 -104 249 -5 23 -33 72 -61 110 -63 85 -78
115 -117 227 -17 49 -53 123 -81 166 -52 81 -85 147 -121 242 -11 30 -38 76
-59 102 -37 45 -62 97 -116 243 -14 40 -55 114 -91 165 -44 65 -71 116 -85
164 -22 72 -46 118 -110 206 -29 40 -42 73 -63 167 -34 146 -33 143 -99 226
-34 42 -69 102 -93 158 -20 49 -57 118 -81 154 -57 85 -107 187 -128 258 -9
31 -36 85 -59 119 -40 59 -72 121 -146 287 -19 41 -50 100 -69 130 -19 30 -40
70 -48 88 -7 17 -20 32 -27 32 -33 0 -487 -165 -866 -315 -759 -300 -1475
-632 -2200 -1023 -294 -158 -351 -192 -343 -205 9 -16 92 -112 187 -216 43
-47 93 -108 111 -136 18 -27 59 -77 91 -111 129 -132 319 -348 423 -477 18
-23 58 -68 88 -101 30 -32 61 -70 70 -85 10 -14 27 -35 38 -46 29 -27 235
-260 255 -288 8 -12 41 -49 74 -82 32 -33 65 -74 72 -90 7 -17 25 -42 41 -56
15 -15 51 -53 78 -85 28 -31 79 -90 115 -129 36 -39 97 -109 135 -155 39 -46
100 -116 136 -155 36 -40 87 -104 113 -143 25 -39 54 -77 64 -84 24 -17 210
-224 281 -313 31 -38 96 -111 146 -160 49 -50 108 -113 130 -140 39 -48 87
-101 154 -173 19 -21 62 -68 96 -107 33 -38 72 -82 85 -96 14 -14 68 -79 120
-144 52 -65 151 -186 220 -269 69 -83 135 -167 147 -186 12 -19 43 -55 68 -80
26 -25 67 -76 93 -115 26 -38 84 -110 129 -159 46 -50 103 -119 128 -155 25
-36 66 -88 93 -116 62 -65 147 -164 208 -242 27 -35 85 -103 129 -152 95 -105
122 -137 215 -256 141 -180 167 -211 260 -314 117 -130 140 -162 140 -196 0
-59 -38 -100 -190 -204 -99 -67 -219 -177 -234 -213 -25 -57 -10 -84 104 -197
59 -58 137 -142 173 -186 36 -44 80 -91 97 -105 17 -14 44 -42 60 -63 15 -21
86 -100 158 -175 128 -136 233 -255 284 -322 14 -19 48 -57 74 -85 89 -91 193
-211 259 -296 22 -29 51 -64 65 -78 28 -30 91 -107 135 -166 27 -36 83 -98
280 -310 36 -38 86 -97 112 -130 27 -33 75 -92 108 -132 33 -39 94 -113 135
-164 41 -50 89 -106 105 -124 17 -18 57 -64 89 -104 33 -40 65 -75 71 -79 10
-6 79 -93 114 -146 8 -11 45 -52 82 -91 36 -38 78 -92 92 -120 16 -32 48 -68
87 -100 34 -27 85 -81 113 -120 28 -38 69 -88 91 -110 23 -22 81 -86 129 -143
48 -56 92 -102 97 -102 19 0 70 -94 70 -131 0 -67 -48 -94 -224 -129 -52 -11
-66 -19 -110 -65 -65 -66 -126 -99 -188 -98 -74 1 -137 50 -254 199 -54 70
-130 163 -169 207 -106 121 -153 176 -238 284 -42 54 -127 152 -187 218 -61
66 -141 156 -180 200 -38 44 -98 112 -132 151 -35 39 -81 95 -103 123 -80 105
-139 177 -200 246 -34 39 -79 95 -99 125 -21 30 -61 82 -90 115 -29 33 -106
123 -171 200 -65 77 -139 164 -164 194 -25 29 -65 79 -89 110 -52 67 -148 174
-258 285 -44 44 -100 108 -124 141 -24 33 -62 80 -84 105 -23 26 -66 77 -96
114 -63 78 -97 118 -193 225 -38 42 -82 96 -100 121 -17 25 -65 79 -107 120
-42 41 -96 104 -120 140 -24 36 -66 90 -94 121 -28 31 -80 92 -116 135 -36 43
-108 124 -160 179 -177 188 -283 310 -330 380 -26 39 -91 117 -144 175 -52 58
-121 135 -153 173 -32 37 -92 107 -134 155 -41 48 -124 146 -184 217 -60 72
-118 139 -128 150 -10 11 -58 67 -105 125 -48 57 -123 143 -168 190 -44 47
-99 109 -121 138 -23 29 -84 98 -135 155 -183 198 -232 253 -341 382 -60 72
-177 203 -260 293 -83 90 -158 173 -166 185 -8 12 -58 72 -111 132 -106 122
-284 333 -344 410 -22 28 -64 75 -95 105 -31 30 -85 88 -121 130 -193 226
-224 260 -246 275 -13 8 -49 51 -80 95 -31 44 -75 93 -97 109 -54 37 -90 76
-113 123 -18 34 -70 94 -261 300 -46 48 -94 105 -107 125 -13 21 -83 100 -155
176 -123 130 -173 188 -409 466 -53 63 -122 142 -152 176 -30 34 -80 91 -110
128 l-55 66 -45 -25 c-25 -14 -144 -93 -265 -176 -728 -498 -1359 -986 -1995
-1542 -205 -179 -519 -466 -583 -533 l-38 -40 65 -41 c36 -23 66 -45 66 -50 0
-5 28 -26 63 -46 35 -20 94 -64 132 -98 39 -33 97 -78 130 -101 33 -23 93 -68
134 -100 41 -32 99 -73 129 -89 29 -17 77 -52 105 -78 29 -26 84 -63 123 -83
38 -19 118 -71 176 -114 58 -43 145 -102 193 -132 48 -30 92 -63 99 -73 14
-20 95 -78 166 -120 25 -14 79 -54 120 -88 41 -33 100 -75 130 -92 30 -17 87
-57 125 -88 39 -31 97 -74 130 -95 33 -21 87 -59 120 -84 32 -25 69 -53 81
-61 12 -8 73 -54 136 -101 118 -89 349 -244 478 -320 41 -24 111 -79 156 -121
45 -42 99 -86 120 -97 22 -12 58 -36 81 -54 23 -17 68 -52 100 -77 92 -71 359
-251 402 -270 13 -6 39 -24 58 -40 19 -17 38 -30 43 -30 5 0 40 -28 77 -63 76
-70 112 -96 260 -186 55 -34 106 -68 113 -75 6 -8 41 -33 78 -57 113 -70 196
-127 217 -146 48 -44 313 -237 354 -258 25 -13 75 -48 111 -79 36 -31 99 -79
140 -108 41 -28 102 -73 135 -98 33 -25 98 -71 145 -102 47 -31 96 -68 110
-83 14 -15 93 -69 175 -122 83 -52 178 -116 213 -141 34 -26 110 -78 168 -116
131 -86 142 -101 125 -165 -27 -101 -89 -170 -251 -280 -99 -66 -127 -106
-116 -164 12 -63 61 -107 241 -215 39 -23 94 -64 122 -91 29 -28 81 -64 116
-80 35 -17 76 -40 91 -52 57 -45 174 -126 232 -161 33 -21 80 -55 105 -77 48
-42 131 -94 170 -106 29 -9 80 -46 134 -96 22 -20 81 -59 130 -87 50 -27 117
-68 150 -91 33 -24 92 -57 130 -75 50 -23 81 -45 104 -75 22 -28 69 -63 140
-104 63 -37 129 -85 164 -119 58 -59 101 -85 172 -108 22 -7 63 -34 92 -60 29
-26 89 -69 133 -95 45 -25 98 -61 118 -79 20 -19 71 -50 112 -71 41 -21 107
-65 145 -100 39 -34 108 -86 155 -115 47 -29 109 -73 138 -97 30 -23 90 -62
133 -85 44 -23 106 -64 137 -90 31 -27 60 -48 64 -48 14 0 159 -93 238 -153
41 -31 95 -71 120 -88 25 -18 51 -39 57 -47 7 -9 43 -36 80 -62 105 -72 134
-131 99 -198 -22 -42 -48 -61 -132 -93 -44 -17 -95 -45 -114 -63 -34 -31 -78
-66 -144 -114 -17 -12 -49 -27 -71 -33 -60 -17 -104 2 -193 81 -52 47 -108 85
-172 117 -52 27 -108 60 -125 74 -16 14 -76 55 -131 91 -56 37 -125 89 -155
118 -29 28 -77 63 -106 77 -29 15 -70 41 -91 58 -20 17 -149 107 -287 200
-137 92 -273 189 -301 214 -28 25 -90 68 -138 95 -49 27 -114 73 -145 101 -31
29 -81 65 -111 80 -30 15 -71 39 -90 54 -19 14 -143 98 -275 186 -132 88 -274
185 -315 216 -41 30 -96 66 -122 79 -26 13 -78 47 -115 76 -38 29 -105 74
-149 99 -45 26 -106 71 -135 102 -52 54 -99 84 -150 96 -15 4 -56 33 -91 65
-35 31 -115 92 -178 134 -267 179 -338 229 -395 278 -33 28 -89 67 -125 85
-36 18 -76 45 -90 60 -33 36 -106 89 -205 149 -44 27 -95 63 -113 80 -18 17
-72 54 -121 81 -49 28 -135 85 -191 128 -56 43 -116 85 -134 94 -17 9 -51 34
-76 56 -25 21 -75 54 -111 73 -37 18 -96 55 -131 81 -35 26 -83 61 -107 77
-23 17 -77 61 -119 99 -42 38 -106 84 -142 101 -80 39 -108 57 -185 119 -33
27 -78 58 -100 69 -44 23 -56 32 -198 139 -118 89 -232 170 -347 246 -47 31
-104 71 -126 90 -23 18 -61 43 -85 55 -56 29 -123 77 -212 151 -39 32 -98 72
-131 89 -34 17 -110 65 -171 107 -60 43 -132 90 -160 106 -27 15 -67 43 -87
61 -21 19 -69 49 -107 69 -45 22 -101 64 -155 114 -51 49 -109 92 -147 111
-35 18 -89 56 -119 85 -32 31 -78 63 -110 76 -66 28 -116 58 -150 91 -45 44
-140 118 -178 137 -20 11 -76 53 -125 93 -48 41 -115 89 -150 107 -34 18 -134
88 -222 157 -88 68 -215 159 -283 202 -115 72 -150 95 -312 205 -36 24 -94 59
-129 77 -35 19 -70 44 -78 57 -8 12 -31 33 -52 45 -43 27 -104 73 -194 149
-37 31 -84 65 -105 75 -37 19 -288 179 -369 235 -23 16 -46 29 -51 29 -17 0
-410 -443 -678 -765 -499 -598 -990 -1260 -1406 -1895 -191 -292 -232 -360
-222 -369 5 -4 56 -20 114 -35 168 -43 199 -55 321 -117 64 -32 183 -81 265
-108 82 -26 190 -69 239 -93 50 -25 128 -55 175 -68 133 -35 186 -56 250 -100
73 -50 84 -54 245 -95 121 -31 185 -54 326 -118 30 -14 104 -40 164 -57 112
-34 204 -72 336 -140 42 -22 135 -57 205 -78 71 -22 174 -62 229 -90 56 -28
162 -69 240 -92 77 -23 154 -50 171 -61 58 -35 174 -78 327 -120 84 -23 175
-55 202 -70 28 -15 91 -43 140 -62 50 -20 118 -51 152 -70 36 -21 109 -47 179
-66 80 -21 131 -40 160 -60 27 -20 99 -48 203 -81 112 -35 179 -62 222 -90 39
-25 114 -57 216 -90 85 -28 178 -64 206 -79 29 -16 119 -48 201 -71 112 -32
183 -60 281 -110 72 -37 175 -82 230 -100 55 -18 132 -50 170 -71 41 -22 135
-57 227 -83 181 -53 204 -63 276 -109 29 -19 92 -47 140 -62 113 -35 184 -58
252 -83 30 -11 80 -28 110 -37 74 -23 107 -49 121 -94 17 -57 -1 -96 -82 -187
-76 -86 -143 -191 -154 -240 -4 -19 0 -45 8 -66 16 -37 42 -51 162 -88 39 -12
122 -46 185 -77 63 -30 182 -77 265 -104 82 -28 175 -66 205 -84 36 -22 102
-46 185 -68 118 -32 313 -104 340 -127 23 -19 405 -140 444 -140 11 0 59 -20
106 -45 47 -24 125 -56 173 -71 48 -14 121 -36 163 -49 42 -13 114 -41 160
-64 47 -22 131 -51 191 -65 108 -26 156 -45 223 -90 20 -14 50 -28 68 -31 44
-9 215 -59 309 -89 43 -14 97 -39 119 -56 49 -35 155 -70 284 -95 116 -22 159
-37 224 -79 50 -32 189 -86 223 -86 9 0 69 -26 134 -58 66 -32 161 -76 213
-98 102 -42 151 -80 151 -114 0 -28 -41 -81 -155 -200 -50 -52 -112 -124 -137
-160 -67 -94 -99 -115 -174 -115 -51 0 -67 5 -104 30 -23 17 -54 38 -69 48
-30 20 -116 47 -246 77 -96 23 -171 50 -300 110 -44 20 -118 47 -165 59 -115
30 -243 78 -299 112 -25 16 -89 40 -141 54 -192 53 -249 76 -380 155 -25 15
-74 33 -110 39 -36 7 -87 17 -115 23 -78 17 -242 76 -299 108 -28 16 -103 43
-166 60 -110 30 -253 82 -275 100 -20 16 -151 62 -264 90 -65 17 -141 45 -177
64 -74 41 -201 87 -332 121 -50 14 -131 45 -180 69 -48 25 -121 54 -162 64
-166 44 -257 76 -392 141 -57 28 -156 64 -219 81 -220 60 -255 72 -356 125
-69 36 -129 59 -180 70 -137 28 -223 58 -307 107 -81 48 -117 62 -296 113 -52
15 -135 49 -185 75 -59 32 -135 61 -220 85 -71 20 -161 50 -200 67 -115 49
-195 76 -316 107 -117 29 -224 71 -314 121 -28 16 -109 48 -180 71 -142 46
-295 104 -392 150 -35 16 -113 43 -175 60 -62 17 -140 46 -173 64 -33 17 -85
46 -115 63 -30 16 -82 36 -115 42 -85 17 -229 67 -305 105 -66 33 -113 48
-279 92 -105 27 -190 58 -271 97 -85 42 -165 71 -287 106 -73 21 -138 48 -185
76 -109 65 -153 84 -238 104 -85 21 -170 52 -272 98 -66 31 -136 53 -296 92
-75 18 -149 51 -252 110 -19 11 -80 34 -135 51 -192 59 -230 72 -292 100 -134
61 -192 83 -291 110 -67 18 -135 45 -192 78 -95 52 -136 68 -267 101 -45 11
-145 47 -223 80 -134 57 -143 60 -155 43 -8 -10 -79 -144 -159 -298 -389 -751
-757 -1596 -1061 -2435 -71 -196 -249 -727 -259 -771 -6 -27 -5 -27 77 -38 45
-5 129 -15 187 -21 131 -14 294 -35 425 -55 101 -15 357 -38 540 -50 55 -4
125 -10 155 -15 30 -5 134 -16 230 -25 239 -22 365 -39 570 -81 199 -40 341
-57 660 -79 364 -25 731 -62 790 -80 51 -15 517 -63 870 -90 336 -25 408 -33
805 -91 632 -91 768 -105 1206 -124 216 -9 312 -18 429 -40 30 -6 159 -24 285
-40 127 -16 254 -35 284 -41 29 -6 112 -14 182 -18 164 -9 164 -9 163 -129 0
-97 -16 -155 -72 -267 -27 -54 -36 -86 -40 -141 -4 -63 -2 -73 19 -98 23 -26
31 -28 164 -41 77 -8 181 -18 230 -24 50 -6 141 -15 203 -21 62 -6 165 -19
228 -30 64 -11 200 -27 303 -35 102 -8 242 -19 311 -25 69 -6 222 -17 340 -25
118 -9 278 -22 355 -30 158 -17 521 -47 920 -75 322 -23 641 -52 860 -79 267
-33 511 -60 693 -76 96 -8 182 -19 192 -25 42 -23 41 -89 -4 -155 -139 -207
-166 -250 -177 -283 -31 -96 -95 -189 -150 -218 -36 -18 -101 -18 -164 2 -69
21 -233 42 -465 59 -336 25 -427 34 -720 75 -536 74 -1057 129 -1510 160 -85
6 -200 15 -255 20 -55 5 -221 21 -370 35 -466 44 -573 54 -835 80 -140 14
-316 29 -390 35 -175 14 -325 28 -425 40 -487 61 -769 85 -1275 110 -224 11
-223 11 -680 75 -385 54 -602 78 -915 105 -289 24 -726 66 -832 79 -43 6 -130
17 -194 25 -218 29 -298 36 -506 46 -114 5 -282 18 -373 29 -91 11 -228 25
-305 31 -185 14 -375 37 -510 60 -251 44 -661 82 -1080 100 -220 9 -555 35
-757 59 l-68 7 -14 -50 c-8 -28 -37 -152 -65 -276 -191 -863 -333 -1783 -411
-2655 -43 -484 -60 -815 -42 -815 4 0 45 7 92 15 47 8 202 26 345 40 175 18
332 41 480 70 283 56 679 121 820 135 121 12 261 31 430 60 191 32 247 39 370
50 158 15 417 47 480 61 28 6 131 30 230 55 186 45 212 50 630 109 138 19 333
49 435 66 102 17 255 40 340 50 85 11 252 33 370 49 118 16 278 36 355 45 77
9 196 30 265 47 163 39 498 91 730 113 157 16 395 48 510 70 136 26 225 39
395 55 97 10 295 41 439 68 55 11 105 1 129 -26 28 -31 38 -114 24 -195 -6
-40 -12 -133 -12 -207 0 -110 4 -141 18 -168 30 -54 50 -58 168 -27 106 27
331 68 474 86 85 11 246 42 435 84 63 14 206 39 318 56 174 25 497 88 612 119
86 23 319 60 470 75 179 17 402 54 522 84 93 24 422 80 708 121 228 33 240 35
700 130 162 33 316 60 341 60 116 0 153 -49 113 -146 -38 -90 -86 -272 -98
-373 -15 -124 -27 -153 -78 -194 -35 -28 -43 -30 -230 -47 -106 -10 -200 -21
-208 -24 -8 -3 -80 -17 -160 -30 -80 -14 -190 -39 -245 -55 -115 -34 -261 -63
-460 -90 -231 -32 -473 -71 -570 -91 -97 -20 -108 -22 -850 -135 -50 -8 -163
-30 -250 -49 -254 -55 -314 -66 -686 -120 -129 -19 -290 -47 -359 -61 -334
-70 -423 -86 -660 -120 -140 -20 -293 -43 -340 -51 -47 -8 -150 -24 -230 -34
-80 -11 -264 -40 -410 -65 -146 -24 -299 -47 -340 -50 -121 -11 -348 -44 -445
-66 -245 -55 -287 -63 -555 -110 -30 -5 -145 -21 -255 -34 -195 -25 -358 -50
-640 -99 -77 -14 -198 -32 -270 -41 -431 -53 -528 -69 -840 -142 -115 -26
-291 -53 -420 -63 -196 -16 -383 -41 -570 -79 -130 -26 -328 -60 -405 -70
-240 -30 -405 -54 -500 -71 -181 -34 -491 -81 -875 -135 -230 -31 -510 -83
-567 -103 -12 -5 -66 -17 -118 -27 -52 -9 -106 -21 -118 -26 l-24 -9 6 -173
c34 -886 81 -1466 182 -2222 54 -406 191 -1210 235 -1377 l10 -37 32 19 c17
10 52 24 76 30 24 6 112 43 195 81 83 39 207 92 276 119 71 28 147 66 177 88
36 28 92 53 189 86 139 47 174 63 295 130 37 20 112 51 167 70 56 19 140 55
189 82 125 68 168 88 258 118 44 14 115 46 157 70 42 24 123 61 180 81 98 35
188 75 253 115 35 21 131 59 226 88 37 12 109 47 160 78 52 31 137 72 189 90
120 41 213 80 318 134 46 23 134 60 195 82 61 21 136 54 167 73 64 39 98 53
240 104 58 21 146 59 195 85 50 25 141 62 203 80 62 19 145 53 185 75 119 68
186 98 304 135 62 20 170 62 240 95 71 32 146 64 168 71 54 17 202 87 209 99
4 5 43 24 89 41 182 70 215 84 297 129 47 26 134 65 194 86 60 21 177 72 260
113 83 41 194 89 246 107 52 18 147 58 211 88 64 31 156 68 205 82 49 15 134
52 190 81 106 57 144 65 193 39 29 -14 61 -68 61 -102 0 -10 16 -63 36 -118
19 -55 42 -141 49 -191 18 -114 27 -138 60 -160 39 -25 98 -13 165 34 31 22
85 52 120 67 56 24 151 78 220 125 14 9 70 32 125 49 106 35 143 52 245 112
36 21 106 52 155 69 50 18 146 62 215 100 82 45 149 74 194 84 90 21 138 43
243 111 60 40 125 70 215 102 71 25 164 65 207 89 42 24 132 64 199 89 134 49
178 70 267 126 33 20 98 49 145 62 107 32 105 31 225 99 55 31 143 73 195 93
52 20 153 67 225 105 71 37 177 84 235 104 58 21 148 56 200 80 126 57 187 82
233 96 21 7 78 39 128 72 134 88 280 147 333 134 52 -13 58 -45 61 -321 2
-138 -1 -267 -7 -289 -19 -78 -160 -179 -352 -250 -38 -15 -103 -44 -145 -66
-42 -21 -103 -51 -136 -65 -86 -38 -174 -81 -297 -146 -59 -31 -150 -71 -203
-89 -52 -18 -106 -40 -119 -49 -13 -9 -43 -29 -67 -45 -24 -16 -93 -49 -154
-74 -60 -24 -138 -62 -172 -83 -35 -23 -125 -63 -210 -93 -81 -29 -195 -78
-253 -108 -58 -31 -117 -59 -132 -62 -37 -8 -158 -66 -239 -114 -36 -22 -90
-45 -119 -52 -91 -22 -168 -57 -233 -106 -73 -55 -155 -94 -252 -119 -38 -9
-108 -38 -155 -64 -120 -64 -153 -79 -246 -105 -53 -15 -106 -39 -150 -68 -99
-65 -117 -73 -260 -113 -139 -40 -166 -51 -234 -100 -66 -48 -162 -94 -272
-130 -53 -18 -111 -44 -129 -59 -45 -38 -78 -54 -195 -91 -66 -20 -131 -50
-181 -82 -101 -63 -136 -80 -220 -100 -109 -26 -193 -60 -258 -103 -33 -22
-109 -61 -170 -86 -60 -25 -177 -79 -260 -120 -82 -40 -194 -89 -248 -109 -55
-19 -136 -57 -180 -84 -45 -27 -138 -72 -207 -99 -69 -28 -163 -69 -209 -92
-46 -22 -114 -50 -150 -62 -88 -27 -160 -57 -191 -78 -41 -28 -158 -75 -281
-114 -63 -20 -132 -48 -152 -62 -62 -42 -187 -100 -287 -133 -95 -32 -114 -42
-225 -112 -34 -21 -121 -58 -200 -85 -77 -26 -151 -55 -165 -65 -26 -18 -282
-129 -297 -129 -4 0 -70 -34 -146 -75 -81 -44 -187 -92 -258 -116 -75 -26
-136 -54 -164 -76 -53 -40 -125 -73 -214 -97 -35 -10 -121 -46 -190 -81 -69
-35 -163 -75 -208 -90 -46 -14 -136 -54 -200 -87 -65 -33 -163 -78 -218 -98
-55 -21 -161 -68 -235 -104 -74 -36 -157 -73 -185 -82 -65 -21 -121 -50 -219
-109 -48 -30 -131 -66 -215 -95 -75 -25 -170 -65 -211 -88 -41 -22 -115 -53
-165 -67 -145 -42 -295 -123 -295 -161 0 -28 100 -371 200 -684 283 -885 635
-1773 1036 -2610 106 -221 132 -270 144 -270 4 0 49 35 100 77 50 43 113 93
138 112 26 19 78 60 116 90 38 31 111 88 162 126 119 90 243 189 303 241 25
22 73 57 107 77 33 20 96 69 140 108 43 39 104 87 134 107 30 20 87 60 125 89
75 57 106 81 385 303 100 80 207 165 239 189 31 24 105 82 165 130 166 132
180 143 242 186 31 22 96 73 143 113 47 40 116 93 153 118 37 24 95 70 130
102 87 80 338 281 466 375 59 42 127 96 152 120 25 23 103 87 174 142 70 55
153 120 185 144 31 24 79 65 106 90 28 25 79 66 114 91 35 25 102 77 150 116
47 38 124 98 171 132 47 34 119 88 160 122 41 33 91 71 111 84 19 13 56 41 81
63 26 21 90 74 144 118 53 44 116 96 138 116 23 19 59 46 81 59 22 14 72 55
112 92 40 37 76 68 82 68 8 0 39 23 181 138 19 16 46 35 60 42 14 7 61 44 104
82 44 37 137 108 208 156 171 115 265 187 370 283 105 96 189 149 236 149 70
0 90 -28 126 -179 27 -112 37 -133 76 -176 16 -16 38 -52 51 -78 24 -53 48
-73 96 -83 36 -7 79 18 126 73 16 18 50 47 75 64 26 18 67 51 92 74 25 23 68
57 95 76 88 60 277 217 405 336 42 39 101 87 131 106 30 19 82 57 117 83 34
27 90 69 123 94 34 25 82 64 108 86 25 23 82 67 126 99 95 67 158 119 200 161
38 39 181 148 260 200 33 21 92 64 130 95 39 30 120 93 180 139 61 46 139 111
175 145 71 68 231 204 295 251 40 29 48 35 135 109 51 43 108 88 206 163 155
118 236 183 325 257 116 96 286 222 351 259 25 15 58 39 72 53 54 54 89 73
132 73 65 0 82 -21 89 -108 6 -89 19 -141 51 -204 26 -51 74 -224 74 -267 0
-34 -32 -85 -67 -108 -15 -10 -86 -62 -158 -116 -71 -53 -168 -126 -215 -162
-47 -35 -116 -90 -155 -122 -38 -32 -92 -76 -120 -98 -27 -21 -101 -82 -164
-135 -156 -130 -200 -166 -241 -194 -20 -13 -60 -46 -90 -73 -30 -27 -84 -70
-120 -95 -36 -26 -99 -76 -140 -112 -147 -128 -276 -233 -330 -269 -30 -20
-120 -91 -200 -157 -80 -67 -179 -147 -220 -178 -87 -66 -248 -201 -336 -281
-70 -64 -126 -109 -169 -136 -16 -11 -50 -36 -75 -56 -25 -20 -65 -49 -89 -65
-24 -16 -61 -40 -82 -54 -59 -39 -187 -137 -265 -204 -146 -125 -390 -321
-454 -366 -19 -13 -60 -45 -90 -70 -30 -26 -73 -57 -95 -70 -22 -13 -76 -58
-120 -100 -44 -42 -100 -92 -125 -110 -25 -19 -68 -54 -96 -79 -28 -25 -86
-73 -128 -106 -88 -67 -150 -118 -390 -320 -186 -156 -217 -180 -302 -244 -32
-24 -84 -67 -115 -95 -30 -28 -84 -73 -119 -101 -75 -60 -133 -107 -260 -212
-52 -43 -162 -130 -245 -193 -150 -114 -263 -204 -339 -271 -23 -20 -66 -54
-96 -77 -129 -96 -207 -156 -235 -181 -16 -16 -70 -56 -120 -91 -49 -35 -142
-106 -205 -159 -135 -113 -194 -159 -355 -278 -66 -48 -141 -106 -167 -128
-26 -22 -73 -60 -105 -85 -31 -25 -82 -68 -113 -97 -30 -28 -80 -73 -110 -99
-30 -25 -75 -64 -100 -85 -104 -89 -210 -174 -355 -284 -147 -111 -208 -159
-298 -237 -49 -43 -124 -101 -166 -130 -42 -28 -104 -78 -138 -109 -35 -32
-91 -77 -125 -100 -35 -24 -89 -63 -120 -88 -64 -51 -122 -96 -242 -187 -45
-34 -121 -98 -171 -144 -96 -89 -178 -155 -261 -210 -270 -181 -334 -229 -448
-338 l-69 -66 28 -51 c57 -101 282 -466 433 -700 359 -559 782 -1149 1196
-1670 250 -314 571 -695 585 -695 3 0 21 25 39 55 19 31 64 89 100 129 37 41
83 96 102 122 19 26 60 75 91 108 88 96 350 430 461 589 31 45 79 107 106 137
27 30 62 75 78 100 15 25 56 77 89 115 62 72 125 148 160 196 80 107 119 154
185 225 42 44 98 114 125 154 27 41 61 88 76 105 14 16 39 53 55 82 16 28 56
80 87 115 82 90 203 249 267 353 30 48 85 120 121 159 36 39 80 91 99 116 19
25 54 68 78 95 24 28 49 57 56 65 7 8 25 33 39 55 15 22 47 65 71 95 25 30 67
87 93 125 26 39 51 71 55 73 4 2 17 20 30 40 12 20 54 76 93 123 117 143 174
217 237 311 34 49 72 97 85 107 23 19 206 255 270 349 73 107 109 157 133 182
40 43 96 113 174 218 40 53 81 104 91 112 10 8 63 76 118 150 54 74 116 153
137 175 21 22 50 58 64 80 28 42 52 75 123 166 23 30 62 81 87 114 24 33 57
76 74 95 16 19 64 85 107 145 43 61 94 130 115 155 20 25 65 88 100 140 34 52
73 108 87 125 14 16 44 59 67 95 53 82 97 114 148 107 31 -4 52 -20 120 -89
193 -196 341 -308 388 -293 51 16 122 104 169 209 11 26 43 73 71 103 28 31
59 72 70 93 10 20 36 59 56 86 54 71 128 183 152 231 12 23 44 67 72 99 27 31
66 85 85 120 22 39 48 71 71 84 36 23 97 98 129 160 10 19 44 64 75 100 32 36
65 81 75 100 10 19 51 77 92 128 111 138 140 177 159 214 9 18 37 56 63 84 25
28 62 77 81 110 19 32 54 80 77 106 47 53 105 130 171 228 25 36 57 79 73 97
15 18 46 63 69 100 22 37 56 88 75 113 48 62 113 153 155 214 19 29 54 74 77
100 23 26 61 79 85 118 24 39 71 102 106 140 34 39 70 84 78 102 9 17 27 42
39 56 13 14 53 70 90 125 37 55 82 116 100 135 18 19 44 56 59 81 14 25 46 64
70 86 24 22 56 64 70 92 32 63 100 131 131 131 12 0 36 -5 53 -11 27 -9 34
-20 58 -91 27 -81 119 -232 189 -310 53 -58 67 -93 56 -132 -5 -19 -49 -87
-98 -153 -48 -65 -107 -149 -130 -188 -23 -38 -65 -97 -93 -130 -28 -33 -59
-73 -67 -90 -9 -16 -53 -75 -98 -131 -45 -55 -98 -125 -117 -155 -19 -30 -64
-91 -99 -135 -86 -109 -208 -277 -239 -328 -22 -37 -83 -125 -200 -286 -19
-27 -59 -84 -89 -127 -30 -43 -67 -94 -82 -113 -16 -19 -54 -66 -85 -105 -31
-38 -67 -90 -79 -115 -13 -25 -46 -73 -74 -107 -27 -34 -57 -76 -66 -93 -9
-18 -34 -51 -55 -74 -33 -36 -113 -148 -187 -260 -25 -39 -92 -129 -185 -250
-85 -110 -198 -268 -198 -277 0 -5 -37 -54 -82 -110 -46 -55 -96 -121 -112
-147 -16 -26 -53 -75 -81 -109 -49 -58 -220 -295 -294 -407 -19 -28 -57 -78
-85 -111 -66 -76 -94 -114 -185 -250 -41 -60 -103 -148 -139 -195 -36 -47 -88
-114 -116 -150 -27 -36 -76 -95 -107 -132 -32 -37 -63 -78 -70 -90 -14 -26
-215 -295 -278 -373 -22 -27 -51 -66 -65 -85 -13 -19 -60 -77 -105 -129 -45
-51 -87 -103 -93 -115 -6 -11 -24 -37 -39 -56 -45 -55 -151 -201 -184 -250
-16 -25 -54 -75 -85 -111 -88 -106 -139 -173 -230 -299 -47 -65 -132 -179
-190 -255 -153 -200 -237 -313 -275 -370 -18 -28 -40 -57 -48 -63 -8 -7 -49
-63 -91 -125 -41 -62 -100 -140 -131 -175 -30 -35 -55 -68 -55 -73 0 -5 -35
-49 -78 -97 -69 -78 -139 -169 -337 -436 -33 -44 -77 -101 -100 -127 -53 -61
-209 -260 -292 -374 -36 -49 -78 -103 -93 -120 -15 -16 -38 -50 -52 -75 -15
-25 -55 -79 -91 -120 -35 -42 -70 -87 -77 -100 -14 -27 -24 -39 -152 -197 -46
-56 -105 -133 -133 -170 -27 -37 -104 -133 -171 -213 -66 -80 -123 -152 -126
-160 -3 -8 -34 -53 -69 -99 -35 -47 -115 -155 -178 -240 -63 -86 -163 -216
-224 -289 -60 -74 -124 -153 -141 -177 -17 -24 -48 -64 -69 -89 -32 -37 -37
-48 -28 -64 12 -23 403 -400 656 -632 669 -615 1405 -1206 2142 -1721 102 -71
188 -129 192 -129 16 0 95 156 118 233 24 81 50 139 118 267 19 36 57 135 85
221 34 108 59 168 82 198 60 80 68 95 99 196 51 167 68 207 113 275 34 51 52
94 81 195 25 89 58 174 105 270 43 87 79 176 94 235 18 68 36 110 64 150 58
81 80 130 102 223 29 122 57 198 84 227 37 39 82 126 115 224 17 49 40 103 51
120 48 76 71 131 108 260 38 132 79 216 137 287 12 14 34 62 49 105 61 177 80
222 117 284 21 36 56 118 78 182 21 64 54 143 72 175 66 116 108 208 135 292
16 47 55 138 87 201 33 63 75 162 94 219 35 104 82 209 130 285 14 22 47 106
73 186 53 163 62 184 96 220 31 33 63 110 108 255 24 75 52 143 76 180 25 38
58 116 90 215 40 120 61 167 94 211 28 37 48 78 59 120 9 35 26 101 38 146 13
50 33 98 52 124 18 24 50 99 77 179 76 222 104 268 166 277 55 7 169 -39 304
-124 58 -36 116 -73 129 -81 62 -38 116 -34 146 12 9 13 23 71 31 128 16 111
30 153 74 208 18 23 39 75 59 148 37 128 47 156 101 263 21 42 54 126 73 185
53 165 81 234 121 297 45 70 59 108 90 247 26 115 46 163 95 224 19 24 44 80
66 150 33 101 91 228 158 346 14 25 37 91 51 148 25 103 84 246 138 334 16 26
40 87 53 135 35 125 71 221 104 274 31 51 48 94 85 219 14 47 51 135 82 195
31 61 65 139 76 174 24 79 77 194 122 269 19 31 48 102 66 157 17 55 51 136
75 180 24 44 53 106 65 138 13 35 32 64 50 77 50 36 121 21 159 -34 29 -42
267 -273 313 -304 26 -18 52 -41 58 -52 25 -46 4 -106 -62 -178 -47 -52 -59
-78 -92 -208 -31 -121 -45 -156 -86 -213 -42 -57 -76 -134 -96 -219 -16 -64
-54 -146 -95 -203 -19 -28 -69 -174 -109 -324 -11 -44 -48 -135 -80 -202 -33
-67 -60 -127 -60 -133 0 -27 -67 -204 -120 -320 -41 -87 -65 -155 -79 -224
-13 -60 -31 -115 -47 -140 -14 -22 -40 -64 -57 -92 -21 -33 -40 -85 -55 -150
-37 -158 -60 -226 -93 -274 -51 -76 -78 -135 -105 -232 -39 -140 -51 -167
-109 -243 -65 -85 -70 -98 -90 -222 -15 -96 -40 -158 -120 -303 -14 -25 -36
-83 -51 -130 -41 -137 -83 -236 -126 -295 -29 -40 -43 -74 -54 -127 -26 -126
-55 -210 -100 -294 -28 -52 -53 -117 -69 -182 -34 -137 -65 -219 -113 -299
-22 -37 -47 -90 -56 -118 -8 -27 -29 -95 -46 -150 -16 -55 -41 -118 -54 -140
-63 -103 -66 -109 -122 -325 -8 -30 -43 -107 -78 -170 -43 -77 -71 -143 -85
-200 -26 -99 -60 -179 -96 -222 -43 -50 -74 -123 -104 -237 -24 -90 -38 -121
-83 -187 -39 -57 -60 -101 -76 -159 -48 -171 -63 -212 -96 -265 -50 -78 -74
-132 -102 -230 -24 -82 -69 -184 -118 -263 -23 -38 -39 -83 -72 -207 -28 -102
-60 -178 -105 -247 -30 -45 -53 -102 -81 -196 -28 -92 -54 -156 -87 -212 -26
-44 -55 -105 -63 -135 -9 -30 -26 -87 -37 -126 -14 -47 -36 -93 -64 -130 -50
-68 -53 -75 -106 -251 -32 -108 -49 -147 -94 -215 -41 -62 -62 -106 -81 -173
-37 -131 -48 -161 -100 -254 -25 -46 -58 -123 -72 -170 -15 -47 -55 -144 -90
-216 -35 -72 -77 -179 -94 -240 -31 -108 -43 -135 -112 -247 -24 -39 -38 -79
-46 -127 -14 -83 -41 -145 -110 -260 -48 -77 -92 -175 -92 -204 0 -21 -37
-161 -51 -192 -7 -16 -27 -48 -44 -70 -48 -60 -61 -90 -96 -221 -17 -65 -38
-131 -45 -146 -14 -28 -14 -28 38 -61 183 -116 750 -421 1173 -631 476 -237
859 -410 1342 -609 376 -155 938 -366 947 -356 4 4 16 94 47 333 5 43 27 167
49 275 21 108 44 248 50 311 27 282 51 445 135 890 46 247 62 358 95 685 22
216 72 573 94 670 8 33 30 121 49 195 20 74 43 198 52 275 9 77 32 239 50 360
44 292 44 289 65 498 49 471 67 591 115 782 70 277 86 358 110 577 28 252 37
313 71 483 34 176 60 350 79 525 18 182 35 303 75 564 16 105 34 247 40 316
19 220 26 250 59 284 24 23 40 30 83 33 66 6 202 -25 321 -73 65 -26 99 -34
134 -32 72 5 82 26 94 189 15 204 36 377 69 554 29 158 50 325 90 720 19 184
59 445 109 720 12 61 28 148 36 195 9 47 24 173 35 280 11 107 31 263 45 345
37 224 62 408 85 620 12 105 36 316 55 470 19 154 41 359 50 455 29 324 32
341 53 369 43 57 136 49 220 -21 26 -21 79 -54 117 -72 65 -31 127 -76 247
-176 29 -25 52 -56 63 -84 16 -42 16 -47 -4 -125 -12 -45 -26 -134 -31 -199
-10 -120 -32 -258 -50 -302 -24 -62 -81 -501 -110 -836 -16 -199 -36 -400 -44
-445 -22 -128 -52 -359 -81 -614 -40 -362 -69 -561 -100 -705 -25 -112 -93
-548 -110 -700 -9 -80 -20 -215 -26 -300 -5 -85 -16 -189 -24 -230 -8 -41 -26
-151 -40 -245 -25 -169 -46 -298 -90 -555 -13 -74 -37 -254 -54 -400 -29 -242
-43 -344 -86 -620 -14 -91 -23 -173 -46 -415 -26 -283 -86 -647 -125 -762 -24
-69 -52 -246 -70 -432 -25 -264 -86 -767 -98 -810 -15 -50 -57 -375 -92 -711
-21 -204 -39 -314 -79 -475 -45 -183 -69 -326 -94 -565 -52 -485 -59 -537
-127 -890 -13 -69 -35 -228 -49 -355 -38 -344 -42 -372 -90 -610 -47 -233
-100 -624 -87 -637 10 -10 325 -96 617 -168 860 -212 1774 -374 2665 -474 268
-30 508 -51 513 -45 8 10 -49 688 -73 874 -36 273 -74 685 -90 985 -13 232
-33 413 -60 553 -58 291 -88 510 -110 797 -41 532 -59 703 -114 1075 -19 125
-41 356 -66 682 -23 301 -31 365 -76 638 -69 415 -76 482 -99 990 -22 490 -24
517 -61 812 -19 150 -34 294 -34 320 0 33 -10 68 -31 113 -59 123 -39 190 67
223 48 15 98 19 264 20 214 2 228 5 278 50 29 27 29 77 -3 154 -53 131 -91
420 -135 1033 -26 351 -54 619 -81 770 -11 63 -29 162 -39 220 -10 58 -24 161
-30 230 -27 287 -73 699 -100 895 -17 116 -36 266 -44 335 -8 69 -22 177 -30
240 -15 118 -30 357 -41 655 -4 99 -15 213 -26 273 -36 194 -25 219 88 209 56
-5 208 -42 391 -96 78 -23 165 -94 183 -149 6 -20 13 -74 14 -121 4 -185 17
-353 40 -516 13 -93 26 -210 30 -260 3 -49 10 -119 15 -155 5 -36 14 -110 20
-165 20 -181 50 -398 75 -540 44 -258 84 -606 110 -960 22 -297 38 -427 116
-940 52 -347 79 -571 110 -920 11 -126 24 -257 30 -290 58 -351 81 -559 114
-1040 8 -115 19 -255 24 -310 6 -55 13 -129 16 -165 9 -97 44 -336 60 -410 39
-179 104 -683 115 -885 5 -99 21 -268 35 -375 63 -488 79 -640 100 -1000 18
-317 34 -439 94 -720 57 -267 92 -531 106 -800 9 -168 73 -796 130 -1270 3
-25 19 -178 35 -340 30 -294 54 -476 88 -685 l18 -110 555 1 c778 1 1385 35
2149 120 405 45 1104 144 1118 159 3 2 -3 23 -12 46 -10 24 -28 90 -42 148
-17 71 -45 148 -84 232 -33 69 -74 171 -91 225 -40 129 -75 211 -105 252 -38
50 -60 107 -85 222 -24 116 -48 178 -85 228 -43 56 -72 132 -100 262 -19 92
-44 167 -94 285 -38 88 -93 233 -123 322 -31 90 -71 189 -91 221 -50 82 -71
137 -85 217 -32 179 -42 211 -86 285 -52 86 -80 156 -100 249 -21 99 -38 139
-93 224 -42 64 -54 94 -72 175 -52 237 -60 261 -110 345 -54 90 -97 198 -125
315 -9 40 -29 89 -43 110 -44 65 -70 133 -106 280 -37 150 -43 164 -86 224
-40 55 -75 149 -104 279 -20 89 -40 142 -90 244 -52 105 -72 158 -99 271 -21
85 -47 165 -66 200 -64 121 -81 163 -110 272 -16 61 -44 138 -62 169 -73 130
-89 167 -109 260 -32 142 -56 217 -90 272 -35 56 -53 106 -81 216 -12 51 -49
139 -101 241 -72 145 -81 169 -85 231 -5 62 -3 72 18 96 20 23 40 31 129 48
58 11 141 27 184 35 94 18 191 55 223 86 14 13 23 33 23 52 0 27 -104 248
-166 351 -13 22 -33 83 -45 135 -30 136 -37 155 -84 250 -23 47 -58 140 -78
207 -20 70 -63 177 -100 255 -43 87 -80 183 -107 278 -24 80 -64 197 -90 260
-48 113 -59 145 -101 287 -11 40 -42 108 -68 150 -64 108 -68 119 -97 262 -31
149 -51 207 -93 260 -47 59 -76 131 -115 284 -27 105 -48 161 -86 232 -38 70
-56 120 -75 201 -37 167 -52 209 -92 261 -47 61 -68 111 -93 216 -26 111 -57
191 -114 297 -36 68 -48 105 -62 185 -9 55 -27 130 -40 166 -55 153 -21 178
233 179 87 1 199 2 248 3 80 2 95 -1 135 -23 73 -41 84 -63 165 -340 20 -69
61 -177 90 -240 34 -71 70 -173 96 -265 30 -110 56 -177 94 -250 30 -55 65
-138 78 -185 14 -47 43 -128 66 -180 61 -139 86 -210 121 -350 36 -147 46
-174 78 -217 13 -18 53 -114 88 -215 36 -101 91 -237 124 -303 45 -93 63 -143
79 -222 22 -111 54 -198 99 -271 35 -57 54 -113 86 -259 25 -112 37 -140 102
-243 36 -57 52 -105 105 -301 22 -84 41 -133 69 -176 37 -55 59 -114 109 -288
12 -38 37 -95 56 -125 56 -88 72 -128 100 -253 36 -161 48 -190 100 -250 46
-52 83 -142 100 -242 12 -70 42 -157 83 -247 22 -48 66 -165 97 -260 31 -95
64 -184 73 -198 29 -44 58 -112 106 -255 27 -77 60 -162 73 -189 30 -59 106
-270 128 -355 8 -34 40 -107 69 -163 52 -98 69 -146 130 -367 32 -112 48 -150
92 -211 19 -27 44 -87 64 -150 79 -263 92 -300 126 -356 46 -76 81 -168 95
-252 16 -89 33 -138 64 -174 38 -45 80 -144 124 -292 21 -72 57 -174 80 -228
23 -53 57 -149 77 -215 60 -203 64 -212 94 -260 37 -58 63 -125 101 -266 18
-67 43 -132 64 -166 33 -53 79 -182 126 -350 12 -42 29 -87 39 -101 39 -55 90
-169 109 -245 37 -144 93 -291 130 -342 20 -27 70 -181 71 -216 0 -10 28 -73
63 -140 67 -130 99 -213 142 -369 14 -53 50 -148 79 -210 30 -62 74 -177 99
-255 36 -112 70 -196 102 -250 2 -5 221 48 446 107 958 252 1849 553 2743 927
137 57 262 111 278 119 l30 16 -20 21 c-11 12 -59 81 -107 152 -49 72 -107
155 -130 185 -23 30 -64 91 -90 135 -27 44 -77 120 -112 169 -35 48 -63 92
-63 97 0 9 -59 98 -141 214 -27 39 -65 99 -84 135 -20 36 -63 101 -98 146 -34
45 -74 103 -90 130 -15 27 -54 80 -86 117 -33 38 -78 98 -100 135 -22 37 -58
82 -81 100 -29 24 -55 62 -90 132 -30 59 -72 124 -106 162 -31 34 -68 83 -82
108 -15 25 -52 80 -84 124 -32 43 -75 112 -94 155 -20 42 -54 97 -75 122 -21
25 -61 92 -90 148 -35 68 -64 112 -87 129 -41 31 -83 92 -106 154 -9 25 -34
66 -54 90 -50 57 -87 116 -117 184 -16 37 -52 85 -100 135 -41 43 -87 104
-104 136 -16 32 -53 85 -81 118 -28 33 -67 89 -86 125 -19 36 -52 88 -74 115
-22 28 -64 86 -92 130 -29 44 -67 100 -85 125 -18 25 -57 90 -87 145 -30 55
-75 124 -100 153 -25 29 -66 90 -91 136 -24 45 -67 108 -95 140 -27 31 -68 89
-91 129 -23 39 -68 112 -101 161 -32 50 -73 119 -90 155 -17 36 -61 103 -98
148 -37 46 -82 111 -100 144 -17 33 -58 90 -91 127 -32 36 -77 101 -99 143
-22 43 -62 104 -89 136 -27 32 -70 99 -96 148 -25 50 -59 106 -74 125 -15 19
-53 78 -86 130 -115 187 -163 256 -243 350 -95 110 -100 130 -48 188 54 59
133 108 288 178 79 36 151 74 161 86 37 44 15 103 -62 161 -30 23 -66 64 -88
100 -20 34 -55 86 -77 116 -77 101 -87 116 -142 215 -31 54 -77 130 -102 168
-26 39 -74 112 -107 163 -33 51 -80 115 -105 141 -53 58 -115 141 -130 175 -5
13 -25 45 -42 70 -18 25 -85 125 -148 223 -63 98 -129 199 -147 224 -17 26
-54 83 -82 128 -28 44 -75 109 -106 143 -30 34 -64 79 -75 101 -24 47 -73 122
-116 175 -17 22 -58 83 -91 135 -33 52 -90 136 -127 185 -37 50 -78 113 -91
140 -14 28 -51 82 -84 121 -55 66 -131 175 -131 189 0 10 -60 95 -121 170 -31
39 -70 95 -88 125 -18 30 -56 84 -86 120 -30 36 -68 94 -86 130 -17 36 -40 76
-51 90 -31 40 -108 163 -108 173 0 4 -40 50 -89 102 -98 102 -115 139 -89 192
17 37 37 46 353 170 104 41 189 48 243 19 38 -20 119 -119 127 -156 7 -30 63
-101 118 -150 23 -20 53 -64 77 -115 22 -45 56 -104 78 -131 21 -27 64 -91 96
-141 32 -51 71 -103 86 -115 16 -13 65 -77 109 -143 44 -66 100 -145 125 -175
24 -30 58 -80 74 -111 59 -109 257 -400 336 -493 30 -36 67 -89 82 -118 15
-29 52 -82 84 -118 31 -36 71 -96 89 -135 18 -38 49 -88 71 -110 21 -22 61
-77 88 -122 27 -45 68 -104 90 -130 22 -26 67 -94 101 -150 34 -57 89 -135
122 -175 32 -40 59 -78 59 -84 0 -6 25 -39 56 -75 32 -37 72 -98 93 -144 21
-44 51 -91 67 -105 16 -14 58 -68 93 -120 35 -52 91 -133 125 -180 34 -46 79
-112 101 -146 22 -34 72 -107 110 -163 39 -56 90 -135 115 -175 61 -99 79
-126 110 -161 15 -16 42 -55 60 -85 18 -30 44 -66 56 -80 39 -42 164 -229 232
-345 23 -38 49 -77 59 -86 10 -9 36 -47 58 -83 22 -37 77 -119 123 -183 45
-64 82 -119 82 -123 0 -4 22 -35 48 -68 27 -33 64 -90 83 -127 19 -38 53 -89
76 -115 23 -26 65 -85 94 -131 29 -46 73 -105 99 -130 27 -26 63 -76 81 -110
19 -35 57 -88 85 -119 47 -51 71 -90 124 -200 12 -24 41 -61 63 -81 25 -22 64
-75 96 -134 30 -54 80 -127 112 -162 34 -37 71 -93 91 -135 18 -39 59 -105 91
-147 33 -42 74 -108 93 -146 18 -39 50 -88 71 -110 52 -54 80 -95 115 -168 16
-34 50 -84 75 -111 25 -28 58 -78 74 -112 16 -33 51 -86 79 -117 27 -32 66
-87 86 -125 21 -37 56 -89 78 -117 90 -110 148 -189 176 -244 25 -50 75 -125
94 -140 8 -7 33 -44 57 -84 68 -115 86 -139 143 -189 40 -35 59 -61 75 -105
38 -100 70 -157 125 -224 29 -35 72 -98 96 -139 24 -41 58 -93 76 -115 29 -37
183 -261 246 -358 15 -23 45 -75 68 -115 23 -40 58 -90 78 -110 20 -21 55 -71
77 -112 22 -41 66 -103 97 -137 31 -35 76 -98 100 -139 24 -42 71 -114 105
-159 34 -46 85 -125 114 -177 29 -51 73 -116 99 -144 25 -28 68 -90 94 -137
27 -48 59 -93 71 -101 13 -9 38 -36 56 -60 l32 -45 33 14 c58 24 460 243 735
400 590 338 1198 728 1744 1118 209 149 562 414 571 428 4 8 -12 29 -42 58
-27 25 -137 131 -244 236 -108 104 -225 215 -260 245 -35 30 -100 89 -145 130
-44 41 -144 132 -221 202 -77 70 -185 171 -240 226 -83 83 -238 224 -310 282
-47 38 -293 267 -435 405 -86 84 -206 197 -267 251 -155 140 -364 329 -511
464 -69 64 -162 147 -206 185 -44 37 -141 127 -215 198 -74 71 -181 165 -237
209 -57 43 -103 83 -103 88 0 4 -42 44 -92 88 -51 43 -158 144 -238 224 -80
79 -163 157 -185 173 -22 16 -81 68 -130 115 -100 94 -229 210 -319 285 -32
27 -67 62 -77 79 -10 17 -44 52 -76 79 -32 28 -103 92 -159 143 -55 52 -113
104 -130 117 -16 12 -54 47 -85 77 -31 30 -100 93 -153 140 -122 106 -132 116
-179 173 -20 25 -81 84 -135 130 -53 46 -149 134 -213 194 -64 60 -142 129
-175 154 -71 54 -86 90 -60 147 26 56 95 123 222 212 125 89 164 131 164 179
0 42 -21 71 -94 133 -62 51 -367 337 -635 593 -81 77 -189 175 -241 219 -165
136 -263 219 -326 276 -33 30 -112 98 -174 150 -160 133 -257 219 -379 335
-124 118 -278 253 -456 401 -33 28 -129 115 -212 193 -83 78 -177 163 -210
187 -32 25 -93 77 -135 116 -43 38 -96 83 -118 99 -23 17 -76 63 -118 103 -42
40 -111 98 -153 129 -42 31 -140 119 -217 195 -77 76 -176 164 -221 195 -159
112 -149 192 36 271 48 21 124 62 168 92 62 42 96 57 150 69 132 28 140 24
232 -92 18 -22 67 -67 110 -99 108 -81 238 -190 379 -317 65 -59 138 -121 162
-137 24 -16 100 -80 169 -142 69 -62 135 -119 147 -127 11 -8 53 -44 92 -80
76 -71 253 -218 318 -265 23 -16 76 -61 118 -99 43 -39 104 -89 137 -111 32
-23 75 -60 94 -84 20 -23 66 -66 102 -95 36 -29 139 -123 228 -210 89 -87 192
-183 229 -213 37 -30 72 -63 78 -73 5 -10 38 -41 72 -68 35 -28 86 -71 113
-98 28 -26 73 -66 100 -87 66 -53 391 -346 474 -428 37 -36 111 -105 166 -155
55 -49 136 -124 180 -165 103 -97 113 -106 178 -160 30 -25 63 -57 73 -71 11
-14 64 -65 119 -114 55 -48 132 -116 170 -151 39 -34 88 -76 110 -92 22 -16
92 -78 157 -138 117 -110 202 -184 398 -349 142 -120 325 -287 584 -534 48
-46 124 -112 168 -147 90 -72 111 -90 217 -189 96 -90 256 -234 343 -308 36
-32 86 -77 110 -100 24 -23 66 -59 93 -80 72 -55 215 -187 325 -298 52 -53
115 -109 140 -124 25 -15 88 -71 140 -124 52 -53 124 -118 158 -146 65 -51 84
-68 213 -191 41 -39 99 -92 129 -119 30 -26 116 -105 190 -175 171 -161 271
-249 350 -311 61 -47 103 -88 129 -127 13 -18 40 -41 61 -52 21 -11 54 -42 74
-69 20 -28 79 -87 131 -132 52 -44 95 -84 97 -88 2 -3 80 -75 173 -160 94 -84
197 -178 230 -209 33 -32 98 -90 145 -131 47 -40 161 -146 254 -235 165 -157
320 -302 384 -359 18 -16 32 -32 32 -36 0 -4 22 -27 49 -50 l50 -41 58 48 c95
80 431 391 680 630 365 351 819 828 1189 1252 305 349 654 775 654 797 0 18
-65 58 -158 98 -105 44 -141 63 -175 91 -45 37 -158 101 -223 125 -32 12 -111
54 -174 94 -130 82 -159 97 -215 115 -22 7 -71 33 -110 59 -38 26 -81 52 -95
58 -14 7 -63 30 -110 51 -47 21 -105 56 -129 76 -51 43 -72 55 -201 113 -52
24 -111 56 -130 72 -50 40 -115 75 -195 107 -38 15 -94 43 -124 63 -87 59
-142 89 -206 114 -33 13 -97 48 -141 79 -45 30 -119 69 -165 87 -46 18 -122
56 -169 85 -47 30 -101 62 -120 71 -19 10 -84 50 -145 91 -70 46 -141 84 -197
104 -48 17 -111 48 -140 68 -90 63 -139 89 -238 123 -66 23 -114 48 -160 83
-38 29 -107 67 -167 92 -132 55 -139 59 -198 114 -60 56 -97 78 -195 119 -42
17 -106 55 -143 85 -48 38 -101 67 -185 101 -85 35 -134 62 -180 100 -42 35
-89 62 -146 83 -45 18 -112 51 -147 74 -35 22 -113 65 -174 93 -60 29 -132 71
-159 93 -31 26 -89 57 -154 83 -57 23 -143 68 -192 100 -48 32 -114 69 -146
83 -63 26 -179 89 -204 110 -33 28 -159 95 -218 117 -38 13 -79 37 -105 61
-65 61 -136 105 -202 123 -46 13 -69 27 -105 65 -39 39 -61 52 -131 75 -108
36 -159 82 -159 143 0 30 10 54 43 102 125 182 187 297 187 345 0 70 -34 103
-199 193 -81 45 -159 90 -172 100 -42 33 -161 90 -244 117 -47 15 -92 37 -110
54 -47 44 -82 64 -188 109 -54 23 -117 55 -140 70 -23 16 -96 53 -162 83 -65
30 -160 78 -210 108 -49 29 -144 81 -210 115 -66 34 -131 70 -145 79 -14 9
-84 43 -155 75 -72 32 -177 87 -234 122 -58 34 -142 80 -188 101 -46 21 -111
58 -146 82 -72 50 -91 60 -250 127 -65 27 -130 58 -145 68 -15 11 -82 47 -150
82 -68 34 -143 77 -167 95 -55 42 -69 50 -155 81 -39 14 -93 38 -118 54 -107
65 -155 92 -205 111 -29 11 -79 38 -112 58 -33 21 -91 52 -130 69 -157 69
-373 188 -399 219 -33 39 -36 81 -10 121 10 16 96 103 189 194 186 180 213
197 282 179 22 -6 57 -26 79 -44 21 -19 55 -42 74 -52 19 -10 56 -33 83 -51
26 -18 84 -47 130 -64 160 -60 171 -66 285 -150 30 -21 88 -53 130 -71 89 -37
479 -231 662 -330 19 -10 95 -43 169 -74 74 -30 159 -72 189 -93 30 -20 99
-58 154 -83 54 -25 121 -62 148 -84 30 -24 98 -58 186 -92 75 -30 162 -71 193
-92 73 -50 105 -66 193 -97 40 -15 104 -49 142 -76 76 -55 150 -91 223 -109
63 -16 116 -43 161 -83 44 -39 76 -57 159 -90 34 -13 80 -39 101 -57 22 -18
100 -65 173 -105 74 -39 190 -103 259 -141 69 -39 136 -74 149 -78 43 -13 365
-181 437 -228 85 -55 152 -89 240 -122 36 -14 105 -48 153 -75 48 -27 124 -66
170 -85 46 -19 109 -54 140 -79 62 -48 125 -81 242 -127 41 -16 93 -44 115
-63 50 -42 127 -84 224 -121 41 -16 94 -42 118 -58 23 -15 77 -44 120 -64 203
-93 245 -114 299 -150 32 -21 106 -62 164 -91 59 -29 120 -64 135 -78 16 -13
52 -35 79 -48 201 -95 265 -128 300 -156 36 -30 95 -60 255 -131 30 -13 73
-38 96 -56 23 -17 84 -48 135 -68 112 -45 144 -63 228 -132 36 -29 85 -60 110
-69 101 -36 186 -77 254 -123 40 -27 97 -61 127 -75 30 -15 75 -38 100 -52 92
-52 190 -103 281 -144 52 -24 119 -59 149 -78 69 -44 191 -105 264 -133 31
-11 86 -45 123 -75 36 -30 100 -71 142 -91 125 -59 172 -84 246 -132 39 -25
115 -66 170 -90 55 -24 111 -53 125 -66 37 -33 92 -65 210 -119 58 -27 125
-67 150 -89 46 -40 121 -82 211 -117 28 -11 72 -38 98 -58 25 -21 71 -49 101
-61 135 -57 159 -69 233 -119 43 -30 120 -72 170 -94 51 -22 115 -58 142 -78
28 -21 115 -71 195 -110 80 -40 157 -81 172 -91 14 -11 31 -19 36 -19 11 0
189 262 374 550 451 704 888 1487 1232 2207 110 230 236 506 236 516 0 2 -26
10 -57 17 -32 7 -89 27 -128 45 -139 65 -232 94 -427 129 -48 9 -162 39 -255
66 -152 46 -271 77 -483 125 -41 10 -136 39 -211 66 -183 66 -250 85 -344 99
-192 28 -384 74 -549 130 -65 23 -171 52 -235 65 -150 31 -283 66 -451 120
-74 23 -180 50 -235 59 -189 32 -333 65 -373 85 -73 37 -166 68 -287 95 -210
48 -268 63 -370 99 -61 22 -171 48 -280 67 -144 26 -227 47 -415 110 -257 85
-256 85 -479 130 -86 17 -215 53 -295 81 -88 31 -199 61 -296 80 -176 33 -270
59 -420 117 -58 22 -154 49 -215 61 -232 42 -460 93 -563 125 -59 18 -147 43
-197 55 -202 49 -230 64 -242 134 -4 28 3 54 36 124 22 50 41 95 41 101 0 5
13 38 30 73 38 81 46 135 27 182 -19 44 -55 64 -150 82 -40 8 -142 33 -227 56
-85 23 -173 45 -195 49 -309 57 -365 69 -481 110 -49 17 -136 38 -194 46 -140
20 -207 36 -390 94 -100 32 -210 58 -310 75 -175 28 -256 49 -379 99 -104 42
-163 59 -306 87 -128 25 -194 41 -405 103 -85 24 -234 59 -330 76 -96 17 -242
49 -325 70 -82 22 -215 56 -295 75 -80 19 -228 55 -330 80 -102 24 -231 49
-288 55 -138 13 -182 38 -182 102 0 41 55 141 116 210 32 36 86 113 119 169
102 178 128 195 253 166 37 -8 112 -25 167 -37 55 -12 197 -49 315 -81 497
-136 645 -171 985 -235 44 -8 107 -23 140 -34 33 -10 119 -37 190 -59 72 -22
209 -56 305 -75 96 -19 218 -46 270 -60 52 -14 138 -37 190 -51 52 -14 205
-46 340 -71 135 -24 306 -63 380 -85 132 -40 446 -120 525 -134 48 -9 229 -56
343 -90 45 -13 203 -49 351 -79 182 -37 318 -71 418 -104 105 -35 201 -59 330
-81 100 -17 302 -62 450 -100 304 -78 531 -133 648 -156 44 -9 127 -32 184
-52 57 -19 151 -45 210 -58 262 -60 319 -75 371 -95 82 -33 102 -38 260 -66
80 -14 161 -29 180 -34 19 -5 82 -21 140 -34 58 -14 125 -32 150 -41 25 -9
117 -32 204 -51 88 -19 163 -37 167 -40 4 -2 79 -23 166 -45 87 -22 192 -53
233 -69 111 -43 202 -68 328 -91 178 -31 269 -55 377 -98 96 -38 184 -62 344
-96 40 -8 135 -33 210 -55 137 -39 213 -57 461 -105 98 -19 175 -43 281 -85
110 -44 180 -65 285 -84 351 -67 407 -79 524 -116 69 -22 177 -50 240 -64 123
-26 272 -69 385 -111 39 -14 142 -44 230 -65 248 -60 222 -59 244 -8 32 77
187 526 271 788 139 434 300 1008 400 1425 136 566 307 1432 286 1452 -4 4
-1810 8 -4012 9 l-4005 0 -27 27 c-26 27 -27 31 -26 135 1 61 9 133 18 168 21
81 21 225 0 269 -19 42 -61 60 -115 51 -79 -13 -476 -16 -2516 -21 -1423 -3
-2080 -8 -2146 -16 -143 -17 -187 3 -187 84 0 47 22 105 64 171 19 30 43 81
52 113 25 90 113 299 133 317 16 15 101 17 807 21 1815 11 4343 17 8122 19
2301 2 4017 7 4022 12 16 16 62 572 91 1104 17 317 23 1326 10 1685 -16 449
-61 1148 -74 1161 -5 5 -411 -117 -487 -147 -119 -46 -213 -70 -409 -104 -128
-22 -227 -45 -265 -61 -118 -50 -270 -95 -415 -124 -220 -45 -293 -62 -321
-75 -72 -35 -234 -81 -390 -110 -96 -18 -193 -40 -215 -48 -22 -8 -76 -29
-120 -46 -99 -38 -275 -85 -475 -125 -88 -18 -108 -24 -300 -81 -80 -23 -179
-50 -220 -59 -180 -40 -250 -59 -338 -93 -125 -46 -243 -75 -437 -107 -169
-28 -243 -45 -339 -77 -69 -23 -189 -57 -376 -105 -74 -19 -157 -44 -185 -56
-143 -60 -304 -104 -495 -133 -119 -19 -217 -47 -275 -81 -66 -38 -160 -59
-561 -129 -70 -13 -209 -62 -239 -85 -19 -14 -189 -58 -350 -90 -123 -25 -182
-42 -255 -75 -110 -50 -161 -61 -220 -45 -50 14 -68 48 -80 155 -12 113 -66
347 -89 393 -35 68 -56 72 -153 29 -101 -44 -99 -43 -226 -62 -80 -12 -125
-25 -200 -60 -112 -51 -206 -78 -347 -100 -154 -25 -220 -42 -349 -91 -89 -34
-176 -56 -345 -90 -234 -46 -313 -67 -418 -114 -66 -30 -142 -49 -298 -75
-141 -24 -308 -68 -460 -121 -171 -60 -238 -78 -369 -104 -149 -28 -247 -54
-336 -88 -41 -16 -111 -37 -155 -47 -171 -38 -358 -89 -530 -145 -99 -32 -229
-72 -290 -89 -60 -16 -141 -46 -178 -65 -77 -40 -123 -45 -158 -17 -31 25 -37
121 -14 222 9 40 20 136 26 212 10 160 18 197 54 249 33 49 62 63 187 93 57
13 150 40 207 59 57 20 156 47 220 62 275 61 408 96 470 123 36 16 147 48 246
71 99 23 226 59 282 80 133 50 184 64 322 90 106 20 199 48 381 115 87 32 134
44 359 91 107 22 193 47 245 70 109 48 173 70 227 79 161 25 348 71 529 130
58 19 184 52 280 74 116 27 202 53 255 77 103 47 176 68 355 100 151 26 231
51 340 104 79 39 127 54 245 75 225 40 307 60 399 97 101 40 116 44 316 79
146 25 241 52 341 94 101 44 181 67 359 105 80 18 208 53 286 80 77 26 190 58
250 70 163 32 252 56 434 115 217 70 321 99 460 129 64 14 187 45 275 69 88
25 223 62 300 82 77 20 183 54 235 74 173 69 209 79 455 121 80 14 153 35 220
62 55 22 122 49 149 60 26 10 154 44 284 74 129 31 294 74 366 95 72 22 165
47 206 55 104 21 228 59 340 104 102 41 170 61 265 80 148 29 328 76 421 111
55 21 150 49 210 63 60 15 150 36 199 47 50 12 142 41 205 66 63 24 155 55
205 68 l90 23 -3 34 c-11 125 -137 791 -222 1173 -162 730 -372 1481 -605
2163 -88 258 -105 302 -116 302 -15 0 -91 -40 -126 -67 -18 -13 -86 -49 -150
-80 -65 -31 -163 -84 -218 -119 -55 -34 -123 -75 -152 -92 -28 -17 -77 -51
-108 -76 -31 -25 -86 -60 -123 -77 -37 -18 -105 -57 -152 -87 -47 -31 -114
-71 -150 -89 -36 -19 -92 -50 -125 -70 -33 -19 -130 -72 -215 -116 -85 -44
-189 -103 -230 -130 -41 -28 -97 -61 -125 -74 -51 -23 -77 -39 -206 -129 -41
-27 -105 -65 -144 -83 -38 -17 -105 -55 -148 -83 -43 -29 -115 -68 -160 -88
-45 -20 -115 -60 -155 -89 -40 -28 -119 -75 -175 -103 -56 -28 -129 -71 -162
-96 -33 -25 -103 -68 -155 -95 -52 -28 -127 -69 -165 -93 -39 -24 -115 -64
-170 -90 -55 -25 -131 -66 -168 -91 -37 -25 -105 -60 -150 -79 -78 -33 -131
-65 -227 -139 -25 -19 -78 -50 -119 -70 -41 -20 -95 -55 -121 -78 -49 -44 -69
-56 -191 -110 -42 -19 -105 -57 -140 -85 -36 -28 -110 -72 -164 -99 -55 -27
-131 -67 -170 -90 -38 -22 -117 -64 -175 -93 -58 -29 -131 -70 -162 -91 -31
-21 -94 -55 -140 -75 -88 -39 -141 -70 -199 -115 -20 -15 -78 -49 -129 -75
-51 -25 -116 -61 -143 -80 -28 -19 -104 -61 -170 -94 -65 -33 -137 -75 -158
-95 -22 -19 -103 -67 -182 -106 -78 -38 -153 -78 -167 -88 -43 -32 -153 -103
-212 -137 -132 -75 -187 -50 -237 112 -16 50 -40 108 -53 130 -28 44 -43 89
-53 154 -9 58 -39 137 -61 161 -22 24 -81 25 -114 2 -14 -9 -53 -42 -87 -74
-43 -39 -78 -62 -115 -74 -29 -10 -76 -35 -104 -55 -28 -21 -137 -81 -243
-134 -120 -60 -232 -124 -295 -169 -55 -40 -141 -97 -191 -126 -49 -30 -101
-61 -115 -71 -34 -24 -129 -76 -230 -127 -88 -45 -217 -119 -330 -191 -36 -23
-103 -65 -150 -93 -47 -29 -112 -71 -145 -94 -33 -23 -91 -53 -129 -69 -38
-15 -87 -42 -110 -60 -23 -19 -70 -48 -106 -66 -36 -18 -128 -70 -205 -115
-77 -45 -160 -93 -185 -105 -25 -13 -90 -52 -145 -88 -55 -36 -161 -96 -235
-135 -74 -38 -144 -77 -155 -86 -22 -19 -91 -60 -169 -98 -28 -14 -64 -35 -80
-48 -17 -12 -64 -39 -104 -59 -40 -20 -103 -56 -140 -80 -37 -23 -103 -61
-147 -84 -55 -29 -93 -57 -119 -88 -44 -52 -119 -104 -151 -104 -61 0 -101 89
-124 278 -7 57 -21 106 -46 160 -71 154 -59 206 63 267 42 22 97 58 122 80 55
51 146 110 209 135 25 10 76 38 112 62 37 23 106 65 155 91 49 26 112 65 141
85 57 40 233 148 496 303 93 55 183 110 200 123 18 13 81 47 140 75 60 28 134
71 166 97 31 25 117 77 191 116 74 39 159 88 188 110 29 22 78 50 107 63 29
13 104 55 167 93 62 37 153 88 201 113 48 24 111 63 138 85 28 23 102 67 166
98 64 31 130 67 147 80 17 13 74 47 126 76 52 29 145 85 205 125 61 40 148 90
195 112 47 22 118 63 159 92 40 29 80 55 90 58 9 4 39 21 66 38 59 38 109 66
229 130 49 26 128 76 175 110 47 34 113 72 146 84 33 13 96 46 140 75 44 29
134 80 199 114 65 35 135 75 155 91 40 31 195 121 210 121 5 0 37 21 72 47 35
25 89 57 120 69 63 26 161 81 229 130 25 18 80 48 123 68 43 19 113 61 155 92
42 30 114 74 160 95 45 22 105 53 132 69 28 16 100 50 162 75 73 30 147 71
217 119 58 41 141 92 185 115 43 23 110 62 150 85 39 24 96 56 126 71 52 26
72 38 185 111 28 17 106 62 175 98 68 37 138 79 155 95 34 32 119 84 215 131
36 17 74 39 85 49 37 34 110 74 217 122 59 26 125 61 146 78 22 16 99 60 172
96 73 37 172 92 219 124 47 32 118 75 156 96 39 21 89 52 113 68 24 16 78 46
120 67 43 21 115 64 161 95 46 31 110 67 143 80 33 13 81 40 108 59 59 42 173
109 260 152 36 17 88 50 115 73 28 24 110 72 184 107 73 36 168 87 210 113 42
26 121 72 176 101 55 29 116 65 135 80 19 15 92 57 161 93 124 64 187 100 284
162 28 18 79 47 115 64 87 44 113 68 105 100 -10 37 -161 370 -312 686 -285
595 -651 1264 -1014 1855 -183 297 -441 693 -455 697 -6 2 -47 -29 -90 -69
-44 -40 -110 -100 -149 -133 -38 -33 -106 -96 -150 -140 -89 -89 -242 -233
-361 -340 -43 -38 -162 -151 -264 -250 -102 -99 -257 -246 -345 -327 -88 -80
-196 -184 -239 -230 -257 -268 -343 -352 -486 -469 -56 -47 -237 -216 -365
-344 -67 -67 -239 -229 -486 -458 -128 -119 -278 -264 -331 -320 -53 -57 -174
-169 -270 -249 -95 -80 -234 -204 -308 -275 -74 -72 -154 -146 -177 -166 -59
-49 -262 -237 -433 -402 -258 -248 -463 -441 -525 -492 -33 -28 -160 -150
-283 -272 -123 -121 -269 -256 -325 -300 -56 -43 -115 -93 -132 -111 -79 -84
-136 -79 -207 20 -79 109 -139 203 -173 268 -46 89 -96 136 -133 127 -16 -4
-132 -113 -291 -272 -147 -146 -419 -414 -606 -597 -310 -302 -490 -481 -688
-686 -41 -41 -136 -133 -212 -205 -221 -207 -1413 -1400 -1504 -1505 -155
-180 -180 -202 -226 -202 -29 -1 -63 27 -76 60 -5 13 -16 55 -24 94 -9 46 -27
91 -51 127 -191 295 -185 283 -163 345 11 32 28 50 79 85 36 25 166 145 290
267 124 121 254 248 290 281 36 32 108 104 160 158 52 54 160 162 240 239 80
78 242 236 360 352 118 116 316 307 439 425 123 118 321 313 440 434 120 121
286 285 371 365 85 80 263 255 397 390 818 825 1478 1479 1718 1701 50 46 144
135 210 199 66 63 183 174 259 245 76 72 204 195 284 274 81 79 176 169 212
200 36 31 112 101 170 157 58 55 130 122 160 149 30 27 156 148 280 270 124
121 265 256 314 300 49 44 184 173 300 287 245 240 250 245 381 362 55 48 208
195 340 325 132 130 299 289 370 352 72 64 227 212 346 330 119 118 296 287
395 376 233 211 428 407 422 425 -8 19 -262 338 -442 553 -586 703 -1233 1383
-1903 1999 -208 191 -199 185 -228 155 -13 -13 -42 -59 -64 -102 -23 -43 -57
-102 -75 -130 -73 -115 -123 -194 -146 -232 -30 -50 -220 -352 -269 -425 -20
-30 -59 -84 -87 -120 -27 -36 -68 -94 -89 -130 -21 -36 -84 -135 -140 -220
-56 -85 -114 -181 -130 -213 -16 -32 -53 -85 -82 -119 -29 -34 -72 -96 -95
-137 -22 -42 -67 -114 -99 -161 -32 -47 -69 -110 -82 -140 -14 -30 -54 -95
-89 -145 -36 -49 -86 -132 -112 -183 -27 -51 -67 -114 -90 -140 -50 -57 -84
-108 -126 -193 -18 -35 -51 -91 -74 -124 -23 -33 -63 -99 -89 -146 -30 -55
-62 -99 -89 -121 -28 -23 -58 -64 -87 -118 -44 -83 -120 -201 -148 -228 -8 -8
-32 -50 -53 -93 -22 -43 -67 -116 -100 -162 -33 -46 -78 -120 -101 -163 -22
-43 -61 -105 -85 -136 -24 -31 -57 -85 -73 -120 -15 -35 -59 -104 -96 -153
-38 -49 -86 -121 -108 -160 -22 -38 -54 -88 -72 -110 -17 -22 -51 -76 -75
-120 -61 -113 -87 -153 -135 -210 -23 -27 -58 -84 -77 -126 -21 -44 -58 -102
-89 -136 -30 -33 -78 -105 -107 -161 -30 -55 -73 -123 -98 -152 -24 -28 -65
-92 -91 -142 -28 -54 -70 -116 -104 -152 -31 -34 -71 -90 -89 -126 -18 -36
-53 -94 -79 -130 -26 -36 -62 -95 -80 -131 -18 -36 -53 -90 -77 -120 -25 -30
-65 -93 -90 -140 -50 -97 -76 -126 -121 -135 -28 -6 -38 1 -110 67 -82 77
-222 183 -283 214 -19 10 -57 19 -83 19 -42 1 -52 -3 -77 -30 -15 -18 -37 -58
-49 -90 -26 -74 -63 -144 -113 -214 -56 -79 -102 -151 -135 -212 -15 -29 -42
-76 -60 -105 -18 -29 -33 -54 -33 -57 0 -16 -127 -211 -172 -263 -29 -34 -80
-112 -113 -173 -33 -62 -74 -128 -91 -148 -17 -21 -54 -84 -82 -142 -28 -58
-66 -123 -85 -145 -19 -22 -53 -77 -75 -122 -23 -45 -67 -118 -97 -164 -31
-45 -77 -122 -102 -171 -26 -48 -65 -111 -87 -138 -68 -83 -83 -104 -91 -130
-4 -14 -13 -32 -20 -40 -7 -8 -22 -34 -34 -57 -11 -23 -40 -66 -64 -95 -24
-29 -71 -107 -106 -173 -68 -129 -87 -158 -138 -219 -18 -21 -38 -55 -44 -75
-14 -45 -57 -115 -126 -205 -29 -37 -53 -74 -53 -82 0 -23 -53 -125 -104 -198
-26 -38 -67 -108 -91 -155 -24 -47 -57 -104 -75 -126 -18 -22 -43 -62 -57 -89
-13 -27 -46 -83 -73 -125 -26 -42 -62 -99 -80 -126 -84 -134 -193 -122 -238
26 -18 60 -72 133 -199 268 -81 87 -84 100 -33 181 65 104 160 262 230 385 36
62 76 127 89 144 32 41 96 146 122 201 12 25 52 90 89 145 38 55 75 117 84
139 9 21 44 79 77 129 34 49 75 120 92 156 32 71 71 133 124 195 18 21 38 55
44 75 17 54 74 149 128 213 26 32 62 85 79 119 43 84 71 129 102 165 14 17 48
79 74 139 26 59 69 142 95 184 26 42 70 114 96 161 27 47 62 101 79 120 60 67
126 179 126 213 0 7 32 60 71 117 39 58 84 130 99 160 16 30 54 91 86 135 32
44 72 107 89 140 61 115 95 172 116 191 11 10 45 68 74 129 29 60 69 128 88
150 19 22 51 73 71 113 20 40 57 103 82 140 26 36 63 104 84 149 21 45 65 122
98 170 65 97 74 113 126 225 19 43 46 89 60 103 39 39 71 85 106 155 19 36 51
86 72 113 22 26 60 86 85 133 25 48 69 118 97 155 29 38 71 106 96 151 24 46
58 101 76 123 34 43 89 143 116 211 9 23 44 72 76 110 33 38 74 98 92 134 38
76 84 146 116 176 12 12 46 68 74 125 60 120 83 160 122 209 15 19 39 62 53
94 28 63 69 128 120 189 18 20 54 81 80 135 27 53 68 120 93 147 25 28 62 86
84 130 21 44 54 96 72 115 49 52 89 115 152 240 31 62 71 129 89 149 18 20 58
81 89 135 31 55 86 134 121 176 35 43 79 109 98 147 20 38 51 89 69 114 44 58
77 112 109 179 34 73 89 157 139 215 22 26 59 80 81 121 23 41 57 93 75 116
42 49 97 142 113 189 12 37 44 88 107 170 22 30 52 77 67 106 27 54 91 152
141 214 16 20 40 57 55 82 35 61 80 130 113 173 15 20 52 84 83 144 30 60 66
121 79 137 12 15 49 71 81 123 31 52 76 118 100 145 23 28 57 79 75 115 28 55
69 119 129 201 12 17 11 22 -5 40 -22 25 -496 381 -699 526 -523 372 -1098
744 -1640 1058 -349 202 -753 422 -760 413 -1 -2 -8 -25 -14 -53 -7 -27 -38
-111 -70 -185 -32 -74 -68 -171 -80 -215 -41 -147 -73 -238 -112 -317 -25 -49
-52 -131 -75 -225 -27 -109 -52 -182 -96 -277 -61 -133 -73 -173 -108 -355
-11 -57 -26 -115 -33 -130 -8 -14 -32 -62 -55 -106 -27 -53 -53 -129 -76 -220
-40 -155 -65 -223 -112 -305 -37 -66 -47 -95 -74 -220 -30 -139 -67 -248 -100
-289 -40 -50 -57 -95 -81 -214 -32 -161 -58 -247 -99 -322 -42 -76 -54 -110
-95 -260 -42 -158 -55 -195 -100 -285 -30 -61 -49 -117 -64 -195 -34 -172 -57
-246 -107 -352 -33 -68 -52 -128 -66 -198 -44 -229 -50 -248 -114 -375 -66
-129 -85 -184 -104 -305 -16 -105 -47 -192 -96 -271 -42 -69 -50 -94 -97 -295
-9 -37 -28 -91 -42 -120 -67 -138 -121 -288 -160 -446 -36 -145 -49 -182 -82
-231 -53 -79 -59 -98 -83 -242 -22 -128 -66 -275 -104 -344 -23 -42 -78 -76
-124 -76 -52 0 -126 32 -217 95 -141 97 -193 117 -234 89 -37 -26 -51 -70 -82
-252 -30 -175 -48 -231 -108 -329 -23 -36 -32 -69 -61 -208 -26 -122 -49 -194
-110 -350 -26 -66 -53 -151 -59 -190 -22 -124 -53 -239 -81 -295 -48 -96 -78
-194 -114 -371 -30 -147 -43 -188 -90 -288 -52 -111 -77 -188 -90 -278 -10
-70 -56 -203 -101 -293 -40 -81 -64 -160 -100 -330 -17 -79 -47 -164 -77 -217
-21 -35 -47 -121 -84 -273 -27 -117 -45 -167 -99 -285 -20 -44 -52 -143 -71
-220 -57 -233 -104 -409 -115 -431 -13 -25 -49 -44 -83 -44 -44 0 -165 71
-239 139 -40 37 -97 86 -127 108 -144 107 -155 145 -92 324 22 63 52 175 66
249 31 156 53 227 111 365 24 55 50 134 59 175 23 98 78 284 116 388 16 45 50
167 75 270 50 207 74 278 111 335 32 49 48 92 85 237 16 63 48 156 69 207 45
105 91 260 121 408 11 55 38 148 60 207 51 137 74 217 100 352 12 62 38 151
61 205 64 157 94 250 128 402 33 152 58 234 115 378 19 48 48 153 66 232 28
130 61 231 117 359 11 25 32 108 47 185 33 174 45 211 112 357 37 81 61 151
78 230 41 184 74 298 112 382 21 47 43 121 55 185 30 155 64 263 117 376 33
69 58 142 80 235 22 91 49 171 83 244 46 99 70 181 119 401 6 28 40 109 75
181 56 112 69 148 90 255 31 158 45 199 109 334 43 90 56 129 70 215 23 143
38 193 105 350 32 74 70 180 85 235 39 150 84 281 127 369 21 44 38 88 38 98
0 66 47 230 120 418 51 131 84 233 120 372 27 106 48 166 73 206 40 65 66 139
97 267 26 111 44 159 108 300 28 61 55 137 62 170 25 133 64 255 110 350 34
69 60 143 84 240 19 77 42 157 51 178 l16 38 -78 35 c-509 233 -1396 566
-2088 784 -466 146 -1281 370 -1349 370 -10 0 -15 -36 -20 -152 -10 -215 -24
-396 -41 -518 -14 -104 -20 -157 -50 -445 -8 -82 -22 -197 -30 -255 -14 -100
-31 -405 -55 -980 -6 -140 -22 -394 -35 -565 -13 -170 -26 -355 -30 -410 -7
-128 -38 -513 -75 -965 -30 -367 -49 -609 -75 -980 -9 -118 -22 -269 -30 -335
-8 -66 -21 -212 -29 -325 -16 -207 -24 -300 -51 -555 -8 -77 -19 -243 -25
-370 -5 -126 -15 -291 -21 -365 -6 -74 -11 -193 -10 -264 1 -158 -8 -202 -49
-238 -26 -24 -39 -28 -93 -28 -34 0 -93 7 -132 16 -107 24 -224 34 -270 24
-23 -5 -50 -20 -63 -36 -22 -26 -23 -30 -16 -173 6 -137 -11 -557 -36 -881 -5
-69 -16 -213 -24 -320 -8 -107 -20 -323 -26 -480 -6 -157 -20 -404 -30 -550
-11 -146 -29 -420 -40 -610 -11 -190 -31 -460 -45 -600 -30 -316 -42 -470 -55
-675 -6 -88 -13 -173 -16 -190 -3 -16 -1 -76 5 -133 17 -180 -11 -272 -84
-272 -41 0 -134 40 -203 88 -37 25 -111 62 -164 83 -128 50 -155 65 -189 102
-39 43 -43 72 -25 190 10 67 23 308 36 702 12 330 27 672 35 760 8 88 19 259
25 380 6 121 24 382 40 580 62 762 73 925 95 1460 8 193 17 395 20 450 3 55
10 289 16 520 5 231 16 506 24 610 8 105 21 294 30 420 15 226 40 526 50 595
5 35 26 308 45 585 6 83 14 305 20 495 11 427 50 956 90 1255 66 481 85 746
100 1355 13 544 27 886 45 1099 8 91 17 222 20 291 6 117 22 351 45 675 6 77
11 158 13 179 l2 40 -62 13 c-111 22 -511 82 -793 117 -870 111 -1716 166
-2551 166 l-375 0 17 -157z m136 -18705 c-3 -530 -8 -975 -12 -990 -13 -48 13
-33 104 60 152 154 329 264 526 326 261 82 579 90 845 21 68 -18 143 -41 175
-54 346 -146 594 -383 762 -727 46 -94 113 -259 128 -314 3 -14 11 -41 16 -60
54 -188 79 -418 79 -723 0 -262 -27 -493 -80 -689 -46 -172 -62 -215 -145
-393 -16 -33 -71 -125 -123 -205 -134 -204 -313 -381 -512 -506 -133 -83 -361
-172 -525 -203 -33 -7 -80 -16 -105 -21 -139 -27 -272 -34 -438 -21 -161 12
-187 15 -317 41 -218 45 -411 143 -567 288 -26 24 -53 42 -60 39 -7 -2 -22
-31 -32 -63 -25 -76 -82 -198 -98 -212 -19 -15 -786 -21 -796 -5 -4 6 -4 604
-1 1330 4 725 7 1928 7 2673 l1 1355 543 5 c299 3 562 6 586 8 l44 2 -5 -962z
m4476 -133 l5 -510 448 -1 449 -1 1 -404 c1 -222 -1 -410 -4 -416 -3 -10 -106
-13 -449 -15 l-444 -3 1 -868 c0 -565 4 -887 11 -920 32 -156 102 -254 214
-297 84 -32 302 -40 408 -15 103 24 198 56 229 77 51 35 64 26 71 -49 4 -38 7
-160 7 -273 0 -113 5 -272 12 -353 10 -126 9 -150 -3 -161 -8 -7 -48 -23 -89
-35 -41 -12 -85 -26 -96 -31 -27 -11 -131 -35 -209 -49 -33 -6 -91 -16 -130
-23 -98 -18 -556 -18 -650 1 -150 29 -301 80 -405 138 -174 97 -335 273 -420
459 -108 236 -112 281 -113 1457 l-1 947 -268 0 -268 0 -2 401 c-2 220 0 406
4 412 4 6 97 12 265 14 142 2 272 6 289 9 l31 4 8 288 c4 158 10 352 14 432
l6 145 45 7 c43 8 120 18 300 39 47 5 112 14 145 19 33 5 96 13 140 19 76 10
105 14 285 41 41 7 88 17 105 24 16 8 35 10 42 7 9 -4 13 -137 16 -516z
m-7282 -420 c167 -25 360 -96 488 -179 206 -133 387 -398 441 -646 57 -258 60
-351 60 -1782 0 -1188 -1 -1257 -17 -1261 -40 -10 -1128 -5 -1140 5 -10 8 -13
260 -13 1222 0 1250 -1 1261 -39 1406 -30 113 -67 177 -139 241 -81 71 -162
100 -297 106 -227 11 -456 -86 -660 -279 l-80 -76 -3 -1311 -2 -1311 -23 -5
c-12 -3 -233 -4 -492 -1 -258 3 -512 5 -562 5 l-93 1 6 1578 c3 1098 1 1656
-7 1837 -6 143 -12 280 -12 305 l-2 45 560 5 c308 3 562 4 565 2 3 -2 6 -105
8 -230 1 -124 4 -228 6 -230 3 -2 15 9 28 24 238 289 555 468 938 532 91 16
370 14 481 -3z"/>
<path d="M21188 21256 c-37 -6 -70 -14 -74 -18 -4 -5 -16 -8 -26 -8 -10 0 -26
-4 -36 -9 -9 -5 -48 -23 -87 -41 -94 -43 -210 -127 -279 -200 l-56 -61 0 -827
c0 -735 2 -830 16 -850 17 -25 139 -109 196 -135 146 -68 272 -97 418 -97 233
0 435 102 565 285 119 169 192 377 224 641 14 114 14 436 1 523 -22 145 -34
199 -57 266 -82 235 -195 384 -353 463 -86 44 -133 57 -243 72 -93 12 -120 11
-209 -4z"/>
</g>
</svg>
