<?xml version="1.0" standalone="no"?>
<!DOCTYPE svg PUBLIC "-//W3C//DTD SVG 20010904//EN"
 "http://www.w3.org/TR/2001/REC-SVG-20010904/DTD/svg10.dtd">
<svg version="1.0" xmlns="http://www.w3.org/2000/svg"
 width="4153.000000pt" height="4154.000000pt" viewBox="0 0 4153.000000 4154.000000"
 preserveAspectRatio="xMidYMid meet">

<g transform="translate(0.000000,4154.000000) scale(0.100000,-0.100000)"
fill="#000000" stroke="none">
<path d="M20750 41500 c0 -16 4 -62 10 -102 8 -64 39 -341 70 -643 18 -166 31
-277 40 -340 5 -33 14 -98 20 -145 6 -47 15 -114 21 -150 5 -36 14 -108 19
-160 5 -52 14 -133 20 -180 6 -47 15 -128 20 -180 6 -52 14 -131 20 -175 5
-44 14 -118 19 -165 6 -47 15 -123 21 -170 6 -47 22 -188 36 -315 26 -236 37
-324 54 -455 5 -41 14 -122 20 -180 12 -123 22 -209 49 -420 21 -159 34 -266
52 -425 5 -49 14 -124 20 -165 5 -41 25 -205 44 -365 19 -159 39 -321 44 -360
6 -38 15 -117 21 -175 6 -58 15 -141 20 -185 5 -44 12 -107 15 -140 12 -116
28 -252 66 -550 5 -44 14 -118 19 -165 5 -47 14 -123 20 -170 6 -47 15 -121
20 -165 5 -44 16 -137 24 -206 9 -70 20 -166 26 -215 5 -49 15 -127 20 -174 6
-47 15 -123 20 -170 5 -47 14 -123 19 -170 6 -47 15 -125 21 -175 6 -49 19
-164 30 -255 11 -91 25 -203 30 -250 6 -47 15 -125 21 -175 5 -49 14 -121 19
-160 11 -86 27 -213 40 -325 14 -122 49 -402 61 -490 5 -41 14 -111 19 -155 5
-44 11 -98 14 -120 3 -22 10 -79 16 -127 6 -49 15 -123 20 -165 5 -43 17 -136
25 -208 15 -122 21 -170 46 -370 19 -148 29 -225 39 -297 6 -40 21 -167 35
-283 14 -115 29 -244 35 -285 5 -41 14 -115 20 -165 6 -49 16 -117 21 -151 5
-33 9 -87 10 -120 0 -32 6 -93 13 -134 l12 -75 44 -6 c58 -8 228 -44 305 -64
33 -9 103 -27 155 -41 52 -14 120 -34 151 -44 58 -21 89 -25 89 -12 0 4 -7 59
-15 122 -8 63 -20 151 -25 195 -5 44 -14 116 -20 160 -16 127 -50 421 -61 525
-6 52 -14 133 -19 180 -5 47 -14 128 -19 180 -6 52 -15 133 -21 180 -5 47 -19
166 -30 265 -22 201 -36 326 -50 430 -5 39 -14 111 -20 160 -22 190 -40 345
-55 470 -21 166 -33 276 -45 393 -6 50 -15 136 -20 190 -6 53 -15 140 -20 192
-5 52 -14 131 -20 175 -9 73 -26 214 -50 445 -9 80 -19 168 -40 335 -8 65 -21
140 -36 209 l-7 29 99 -7 c54 -4 126 -11 159 -16 33 -5 107 -14 165 -20 58 -6
124 -16 147 -21 55 -12 93 -11 93 1 0 6 -9 95 -20 198 -11 103 -24 232 -30
287 -6 55 -15 145 -21 200 -13 135 -28 265 -39 350 -13 103 -28 232 -55 495
-23 222 -32 305 -55 495 -5 44 -12 103 -15 130 -3 28 -9 91 -15 140 -5 50 -14
128 -19 175 -33 284 -43 374 -52 450 -13 105 -25 207 -38 325 -11 98 -17 144
-55 465 -15 118 -31 251 -37 295 -5 44 -14 121 -20 170 -5 50 -14 128 -20 175
-5 47 -14 130 -19 185 -5 55 -16 159 -25 230 -48 405 -67 563 -86 740 -16 148
-25 230 -48 430 -11 99 -25 227 -31 285 -6 58 -15 137 -20 175 -17 129 -30
239 -40 355 -12 117 -54 490 -70 614 -5 38 -12 72 -17 76 -17 16 -805 50
-1175 50 l-248 0 0 -30z"/>
<path d="M17085 41209 c-553 -102 -1355 -279 -1355 -300 0 -11 57 -158 70
-181 6 -10 10 -22 10 -28 0 -6 9 -32 21 -58 12 -26 25 -56 29 -67 4 -11 17
-40 27 -65 11 -25 37 -88 58 -140 21 -52 43 -108 51 -125 24 -56 174 -426 174
-430 0 -2 16 -38 35 -79 19 -42 35 -80 35 -85 0 -4 6 -21 14 -37 8 -16 80
-189 159 -384 80 -196 154 -376 165 -400 11 -25 72 -175 137 -335 64 -159 122
-303 130 -320 7 -16 36 -88 64 -160 29 -71 56 -139 60 -150 5 -11 35 -85 66
-165 31 -80 60 -154 64 -165 5 -11 82 -204 171 -430 89 -225 168 -423 174
-440 14 -33 74 -179 87 -210 4 -11 24 -63 44 -115 20 -52 41 -103 46 -112 5
-10 9 -22 9 -28 0 -6 8 -29 19 -53 10 -23 44 -105 76 -182 31 -77 61 -149 66
-160 4 -11 24 -63 44 -115 53 -138 55 -142 84 -212 29 -68 196 -487 283 -708
55 -140 124 -316 153 -390 30 -74 68 -173 85 -220 17 -47 72 -186 122 -310
108 -270 102 -256 122 -302 9 -20 37 -89 62 -155 44 -113 262 -655 289 -718
12 -27 146 -361 165 -410 4 -11 12 -31 18 -45 6 -14 27 -68 47 -120 20 -52 40
-104 45 -115 4 -11 29 -74 55 -140 26 -66 56 -138 65 -160 10 -22 39 -94 64
-160 55 -138 57 -145 84 -205 11 -25 27 -67 36 -94 9 -27 26 -72 38 -100 11
-28 24 -60 28 -71 5 -11 65 -160 134 -332 69 -172 126 -315 126 -319 0 -3 6
-20 14 -37 7 -18 35 -86 61 -152 25 -66 51 -130 56 -142 5 -13 13 -33 18 -45
4 -13 18 -45 29 -73 46 -111 105 -263 120 -310 8 -27 23 -58 32 -68 15 -16 22
-17 61 -7 29 8 156 13 371 14 365 1 349 -2 310 68 -10 18 -29 60 -41 93 -13
33 -34 87 -46 120 -13 33 -33 87 -45 120 -12 33 -26 69 -31 80 -47 109 -67
158 -110 270 -92 237 -140 360 -154 390 -23 51 -216 546 -231 594 -9 25 -22
61 -30 79 -9 18 -26 61 -38 95 -25 66 -53 139 -66 172 -4 11 -18 47 -30 80
-30 81 -57 149 -86 213 -13 29 -24 57 -24 62 0 5 -13 38 -28 72 -16 35 -41 97
-56 138 -29 79 -36 98 -55 143 -24 58 -229 588 -273 707 -12 30 -29 73 -39 96
-22 49 -136 334 -156 389 -14 38 -22 57 -56 135 -19 42 -33 82 -82 220 -20 58
-43 120 -52 139 -8 18 -11 36 -6 40 4 5 82 23 173 41 241 47 247 48 340 61 47
7 88 17 92 22 6 10 0 31 -29 97 -8 19 -19 44 -23 55 -4 11 -17 40 -27 65 -27
62 -67 164 -92 233 -12 31 -30 83 -42 115 -24 65 -67 177 -80 207 -4 11 -34
88 -65 170 -31 83 -64 164 -72 180 -14 28 -69 174 -129 340 -14 39 -31 84 -38
100 -7 17 -45 113 -85 215 -80 208 -118 306 -130 335 -4 11 -23 58 -40 105
-18 47 -38 99 -45 115 -7 17 -18 46 -25 65 -7 19 -16 44 -20 55 -5 11 -25 65
-45 120 -41 115 -109 291 -134 350 -15 34 -49 119 -82 203 -5 12 -13 32 -18
45 -5 12 -26 67 -47 122 -21 55 -41 104 -46 110 -4 5 -8 15 -8 22 0 7 -8 32
-19 56 -20 46 -81 201 -101 257 -7 19 -21 54 -31 77 -11 24 -19 49 -19 56 0 7
-4 17 -8 23 -5 5 -30 65 -56 134 -26 69 -51 134 -56 145 -50 125 -180 463
-180 470 0 6 -6 21 -13 35 -7 14 -23 52 -36 85 -13 33 -26 69 -31 80 -4 11
-28 70 -54 130 -25 61 -46 114 -46 118 0 4 -8 26 -19 50 -18 40 -99 245 -198
497 -25 63 -50 126 -55 140 -6 14 -14 34 -18 45 -4 11 -17 43 -28 70 -49 117
-175 434 -188 475 -9 25 -26 68 -38 95 -13 28 -38 86 -56 130 -17 44 -36 89
-40 100 -5 11 -23 58 -40 105 -41 111 -81 200 -89 199 -3 -1 -28 -5 -56 -10z"/>
<path d="M25756 40903 c-4 -10 -11 -47 -16 -83 -4 -36 -25 -175 -45 -310 -41
-272 -53 -356 -60 -415 -3 -22 -10 -69 -15 -105 -5 -36 -14 -96 -19 -135 -6
-38 -22 -142 -36 -230 -38 -238 -54 -345 -75 -500 -12 -89 -25 -174 -40 -267
-5 -35 -19 -130 -31 -213 -21 -153 -30 -215 -49 -340 -6 -38 -15 -97 -20 -130
-5 -33 -23 -154 -39 -270 -17 -115 -35 -238 -41 -273 -12 -77 -26 -172 -40
-277 -6 -44 -16 -109 -21 -145 -5 -36 -21 -146 -34 -245 -14 -99 -29 -211 -35
-250 -5 -38 -12 -90 -15 -115 -4 -25 -11 -72 -16 -105 -6 -33 -14 -87 -19
-120 -4 -33 -13 -94 -20 -135 -6 -41 -17 -124 -26 -185 -8 -60 -19 -144 -25
-185 -6 -41 -15 -105 -20 -142 -19 -145 -28 -205 -38 -263 -11 -67 -58 -376
-71 -475 -5 -36 -14 -99 -20 -140 -5 -41 -14 -104 -20 -140 -5 -36 -14 -94
-19 -130 -5 -36 -21 -146 -36 -245 -15 -99 -31 -207 -35 -240 -5 -33 -14 -96
-20 -140 -14 -95 -25 -181 -39 -290 -5 -44 -14 -109 -20 -145 -6 -36 -17 -119
-25 -185 -9 -66 -20 -154 -26 -195 -5 -41 -15 -109 -20 -150 -5 -41 -15 -106
-20 -145 -6 -38 -15 -99 -20 -135 -5 -36 -13 -99 -19 -140 -21 -152 -62 -457
-71 -530 -14 -115 -30 -247 -40 -330 -5 -41 -21 -156 -35 -255 -15 -99 -31
-209 -35 -245 -5 -36 -11 -81 -14 -100 -3 -19 -10 -75 -16 -125 -6 -49 -15
-119 -20 -155 -14 -92 -70 -491 -81 -575 -5 -38 -14 -103 -19 -142 -6 -40 -14
-106 -20 -145 -21 -161 -29 -221 -54 -398 -41 -292 -57 -396 -86 -550 -12 -63
-23 -124 -23 -135 -2 -16 18 -30 93 -68 189 -96 476 -250 529 -284 62 -40 66
-38 76 46 3 31 24 175 47 321 22 146 44 292 49 325 5 33 13 90 19 128 5 37 15
97 20 135 6 37 14 94 19 127 5 33 19 128 30 210 29 212 41 296 47 330 3 17 10
62 15 100 15 122 31 237 74 530 15 99 31 214 36 255 6 41 14 104 19 140 5 36
13 101 19 145 13 96 23 164 50 355 11 80 25 179 31 220 6 41 15 100 20 130 5
30 12 75 15 100 4 25 15 104 26 175 27 179 47 325 59 420 6 44 15 114 21 155
23 175 30 229 36 308 5 67 9 82 22 82 10 0 21 -4 26 -8 6 -5 33 -17 60 -27 88
-31 259 -96 292 -111 17 -8 34 -14 37 -14 3 0 36 -14 72 -31 36 -17 69 -27 74
-23 4 5 15 70 24 144 9 74 21 162 27 195 11 70 21 136 44 295 8 63 22 158 30
210 9 52 20 129 26 170 5 41 14 101 20 133 19 116 29 178 39 235 35 196 65
379 91 552 6 36 15 90 19 120 5 30 25 156 45 280 20 124 40 248 45 275 10 55
23 143 60 395 6 41 20 131 31 200 11 69 24 154 29 190 5 36 11 79 14 95 3 17
10 66 16 110 15 105 29 197 40 265 13 75 37 228 50 325 7 44 15 103 20 130 5
28 14 88 20 135 6 47 16 110 21 140 9 55 51 324 70 455 18 120 30 198 40 260
5 33 20 132 34 220 14 88 30 186 35 218 15 86 28 164 40 242 6 39 15 93 20
120 9 49 15 85 45 280 18 116 32 208 45 285 14 84 40 257 59 395 6 39 22 146
36 238 15 93 24 171 21 174 -24 25 -1286 383 -1348 383 -9 0 -19 -8 -22 -17z"/>
<path d="M12129 39657 c-223 -101 -1037 -503 -1073 -529 -21 -16 -38 13 157
-253 56 -77 129 -178 162 -225 55 -79 242 -334 390 -530 35 -47 92 -123 127
-170 34 -47 99 -134 144 -195 349 -471 538 -729 708 -965 81 -113 180 -250
221 -305 41 -55 106 -145 144 -200 39 -55 96 -134 126 -175 30 -41 70 -95 87
-120 17 -25 61 -85 98 -135 37 -49 113 -153 170 -230 57 -77 149 -201 205
-275 482 -642 519 -692 682 -925 42 -60 113 -159 158 -220 73 -99 143 -195
330 -454 33 -46 141 -193 240 -326 99 -133 212 -286 250 -339 88 -122 206
-279 248 -330 31 -38 92 -121 159 -216 18 -25 95 -130 173 -235 78 -104 157
-212 175 -240 19 -27 142 -194 274 -370 132 -176 266 -356 299 -400 32 -44 64
-87 70 -95 7 -8 39 -53 72 -100 49 -71 138 -191 305 -410 73 -96 199 -268 216
-295 19 -32 75 -107 85 -115 3 -3 23 -30 43 -60 21 -30 77 -106 124 -168 100
-130 197 -263 250 -342 20 -30 49 -71 63 -90 191 -257 290 -388 308 -404 20
-18 24 -18 238 52 215 70 350 106 438 119 25 3 45 10 45 15 0 11 -123 185
-259 368 -47 63 -124 169 -171 236 -47 67 -139 193 -205 280 -67 88 -172 233
-235 324 -63 91 -149 211 -190 267 -41 56 -111 152 -155 213 -70 97 -143 197
-344 470 -26 36 -58 81 -71 100 -28 42 -432 583 -441 590 -3 3 -37 50 -75 105
-86 122 -159 224 -237 330 -84 114 -88 120 -166 222 -39 51 -120 159 -182 240
-61 81 -120 154 -130 162 -10 7 -19 20 -19 27 0 13 174 103 355 184 28 12 73
33 102 46 29 13 75 31 102 40 28 9 51 18 51 20 0 2 -32 43 -71 91 -38 48 -133
178 -210 288 -137 197 -221 316 -259 365 -43 57 -200 278 -375 530 -112 161
-256 365 -326 460 -38 52 -87 120 -108 150 -21 30 -64 93 -97 138 -32 46 -111
157 -174 247 -63 91 -158 223 -210 296 -186 257 -220 305 -261 364 -24 33 -86
119 -139 190 -53 72 -127 173 -165 225 -38 52 -92 127 -120 165 -28 39 -62 86
-75 105 -13 19 -27 37 -30 40 -5 4 -109 151 -230 326 -25 36 -134 188 -142
199 -5 6 -51 69 -104 140 -52 72 -104 141 -114 155 -10 14 -55 77 -100 140
-44 63 -105 149 -135 190 -30 41 -84 116 -120 165 -36 50 -90 124 -120 165
-31 41 -79 109 -107 150 -48 70 -197 276 -225 310 -25 31 -357 476 -377 507
l-22 32 -225 -102z"/>
<path d="M30432 39098 c-11 -24 -50 -113 -87 -198 -37 -85 -76 -175 -88 -200
-29 -65 -71 -157 -100 -220 -14 -30 -41 -95 -62 -145 -20 -49 -43 -103 -50
-120 -8 -16 -42 -95 -75 -175 -74 -174 -81 -191 -110 -255 -23 -50 -63 -143
-79 -180 -5 -11 -19 -45 -31 -75 -13 -30 -31 -74 -41 -97 -11 -24 -19 -45 -19
-48 0 -2 -12 -30 -26 -62 -15 -32 -32 -71 -39 -88 -7 -16 -24 -55 -37 -85 -22
-49 -56 -127 -93 -215 -7 -16 -34 -79 -60 -140 -61 -142 -75 -176 -85 -200 -4
-11 -18 -42 -29 -68 -12 -27 -35 -81 -51 -120 -24 -62 -61 -146 -141 -324 -58
-131 -137 -313 -214 -498 -21 -49 -46 -109 -56 -132 -11 -24 -19 -45 -19 -48
0 -2 -13 -33 -29 -67 -25 -56 -70 -158 -106 -243 -77 -181 -101 -238 -145
-350 -28 -71 -60 -149 -71 -172 -10 -24 -19 -45 -19 -48 0 -2 -14 -35 -31 -72
-27 -59 -121 -280 -174 -408 -9 -22 -20 -49 -25 -60 -31 -68 -130 -297 -130
-301 0 -3 -7 -22 -16 -42 -15 -35 -23 -55 -43 -104 -33 -84 -67 -169 -82 -203
-9 -22 -36 -89 -59 -150 -24 -60 -49 -126 -57 -145 -8 -19 -19 -44 -23 -55 -4
-11 -15 -36 -23 -55 -8 -19 -36 -87 -62 -150 -26 -63 -55 -133 -65 -155 -10
-22 -35 -80 -55 -130 -20 -49 -44 -106 -52 -125 -8 -19 -19 -44 -23 -55 -5
-11 -29 -72 -55 -135 -26 -63 -52 -126 -58 -140 -5 -14 -14 -36 -20 -50 -16
-40 -23 -59 -72 -185 -26 -66 -54 -135 -62 -154 -8 -18 -19 -45 -23 -60 -7
-23 -168 -422 -207 -511 -8 -19 -18 -44 -23 -55 -4 -11 -12 -31 -18 -45 -6
-14 -23 -56 -37 -95 -30 -79 -37 -98 -55 -140 -7 -16 -16 -39 -20 -50 -4 -11
-12 -31 -18 -45 -6 -14 -25 -61 -42 -105 -18 -44 -43 -104 -56 -133 -13 -29
-24 -56 -24 -59 0 -4 -25 -70 -56 -147 -162 -410 -192 -487 -214 -557 -10 -31
-27 -78 -38 -105 -11 -27 -34 -87 -52 -134 -18 -47 -42 -108 -55 -136 -13 -27
-30 -72 -40 -100 -9 -27 -23 -65 -32 -84 -21 -49 -25 -60 -78 -200 -44 -118
-52 -139 -74 -192 -6 -13 -35 -88 -67 -168 -31 -80 -62 -159 -69 -175 -8 -17
-39 -93 -70 -170 -32 -77 -70 -168 -86 -203 -16 -35 -29 -65 -29 -68 0 -2 -12
-22 -26 -44 -32 -48 -27 -65 34 -110 75 -55 317 -266 428 -372 56 -54 104 -98
106 -98 3 0 15 28 27 63 12 34 26 71 31 82 39 96 80 201 80 208 0 4 9 26 19
50 11 23 78 195 151 382 72 187 136 349 140 360 5 11 45 117 89 235 44 118
116 305 161 415 45 110 88 218 97 240 8 22 22 55 30 73 8 18 25 61 37 95 52
140 227 578 236 592 4 6 20 44 35 85 16 41 41 103 57 138 15 34 28 66 28 70 0
6 185 469 215 537 48 110 148 374 231 614 35 101 66 187 69 190 3 3 12 1 20
-4 97 -69 261 -179 345 -233 58 -38 111 -76 119 -85 19 -24 38 -21 46 6 4 12
25 65 47 117 22 52 44 104 48 115 4 11 20 45 34 76 14 31 26 59 26 62 0 3 15
38 34 79 19 40 49 107 66 148 18 41 54 118 79 170 26 52 64 138 86 190 21 52
63 147 93 210 29 63 65 142 79 175 14 33 54 128 90 210 36 83 71 164 78 180 7
17 23 53 35 80 13 28 33 73 45 100 13 28 39 85 59 128 20 43 36 80 36 82 0 2
15 36 34 77 19 40 48 107 66 148 18 41 44 100 57 130 14 30 32 71 40 90 9 19
28 62 43 95 15 33 38 83 50 110 12 28 33 74 46 103 13 29 24 55 24 57 0 3 23
53 51 112 28 60 78 171 110 248 33 77 64 149 69 160 5 11 29 64 54 119 26 54
46 100 46 102 0 2 9 26 21 52 12 26 25 56 29 67 9 21 48 107 95 210 75 164
115 256 115 260 0 3 8 24 19 48 10 23 38 87 61 142 23 55 58 133 76 173 19 41
34 76 34 80 0 3 9 24 19 46 33 71 71 156 71 161 0 2 14 34 30 70 17 36 30 67
30 69 0 2 18 43 40 90 22 47 58 125 80 172 22 47 40 89 40 93 0 5 6 21 14 37
8 16 23 49 34 74 11 25 36 83 57 130 21 47 43 99 51 115 7 17 42 96 78 178 36
81 66 150 66 152 0 4 23 56 113 255 66 146 107 240 107 245 0 2 11 28 24 57
23 51 39 87 96 213 14 33 33 76 40 95 7 19 17 40 23 47 6 9 -11 25 -60 56
-176 113 -635 380 -918 534 -60 33 -145 79 -187 102 l-77 42 -19 -43z"/>
<path d="M7935 37097 c-339 -270 -598 -486 -888 -740 l-147 -130 53 -41 c29
-22 93 -75 141 -116 49 -41 105 -88 125 -104 20 -17 54 -46 77 -65 22 -20 49
-43 60 -51 18 -15 168 -140 269 -225 153 -130 304 -256 361 -302 35 -28 117
-96 181 -150 65 -54 165 -137 223 -184 58 -46 184 -150 280 -231 189 -158 250
-209 495 -413 88 -73 216 -179 284 -236 68 -57 167 -140 221 -184 53 -44 218
-181 365 -305 148 -124 326 -271 398 -328 71 -57 168 -137 216 -179 143 -125
433 -365 650 -538 20 -17 55 -45 77 -62 21 -18 80 -66 131 -107 51 -40 134
-109 184 -152 51 -44 107 -90 125 -104 28 -23 325 -266 401 -329 28 -24 133
-110 462 -381 125 -103 423 -351 536 -446 39 -33 140 -115 225 -183 85 -68
182 -147 215 -176 33 -28 114 -95 180 -147 66 -53 163 -131 216 -175 53 -43
141 -114 195 -158 55 -44 160 -132 235 -195 74 -63 152 -128 173 -145 102 -80
334 -270 446 -365 69 -58 170 -142 225 -185 55 -44 127 -102 161 -130 33 -27
82 -68 109 -90 27 -22 104 -86 171 -142 67 -56 193 -159 280 -229 88 -70 218
-178 290 -241 72 -62 138 -113 146 -113 7 0 25 9 38 19 190 148 238 179 440
283 63 33 121 65 128 72 10 10 -5 28 -80 92 -51 44 -118 100 -148 124 -30 24
-89 74 -130 110 -41 36 -88 77 -105 91 -16 14 -55 48 -86 75 -30 27 -66 58
-80 69 -141 116 -195 160 -199 165 -3 3 -27 24 -55 45 -27 22 -90 74 -139 115
-49 41 -123 103 -165 138 -42 35 -85 71 -96 80 -11 9 -103 86 -205 171 -102
84 -196 163 -210 175 -81 68 -166 142 -170 147 -7 8 -353 295 -476 394 -27 22
-69 58 -94 80 -73 65 -180 156 -260 222 -41 33 -118 97 -170 140 -52 43 -106
88 -119 98 -13 11 -56 47 -95 80 -85 72 -90 76 -342 281 -110 88 -211 168
-226 178 -37 24 -35 38 10 69 20 14 71 56 113 94 41 37 126 109 188 158 62 50
124 99 139 111 l25 21 -54 40 c-30 22 -85 69 -124 105 -96 89 -111 102 -440
383 -110 94 -244 211 -300 260 -55 50 -136 122 -180 160 -44 39 -89 78 -100
89 -11 10 -105 88 -210 174 -104 86 -230 193 -280 237 -49 44 -197 170 -328
280 -131 110 -276 232 -322 270 -45 39 -113 95 -150 125 -85 69 -339 281 -560
468 -93 79 -177 149 -185 155 -39 30 -139 116 -181 155 -26 24 -60 53 -76 65
-37 28 -305 252 -370 309 -27 24 -71 62 -98 84 -28 23 -102 85 -165 139 -63
53 -223 187 -355 297 -132 110 -267 223 -299 252 -33 28 -71 60 -85 71 -14 10
-28 22 -31 26 -3 3 -46 39 -96 80 -94 77 -633 527 -785 656 -47 40 -92 73
-100 73 -8 -1 -54 -33 -104 -73z"/>
<path d="M34473 36295 c-15 -20 -58 -74 -94 -118 -36 -45 -117 -149 -179 -232
-63 -82 -181 -238 -262 -345 -122 -159 -369 -488 -471 -624 -33 -45 -184 -242
-245 -321 -30 -38 -85 -110 -123 -160 -38 -49 -101 -130 -139 -180 -156 -200
-680 -896 -933 -1240 -199 -271 -636 -854 -767 -1024 -44 -58 -80 -108 -80
-111 0 -3 -8 -15 -18 -26 -10 -10 -29 -35 -42 -54 -14 -19 -70 -94 -125 -166
-55 -72 -131 -175 -170 -228 -38 -54 -131 -180 -205 -280 -74 -100 -159 -216
-189 -257 -30 -40 -71 -96 -91 -124 -21 -27 -46 -63 -56 -80 -11 -16 -24 -37
-31 -45 -12 -14 -168 -234 -306 -430 -37 -52 -105 -149 -152 -215 -47 -66
-130 -182 -183 -257 -137 -194 -248 -350 -388 -545 -138 -192 -379 -538 -409
-587 -11 -18 -34 -50 -51 -72 -17 -21 -88 -122 -158 -224 -70 -102 -178 -257
-241 -345 -63 -88 -133 -187 -156 -220 -24 -33 -97 -141 -164 -240 -178 -264
-338 -492 -451 -645 -55 -74 -123 -169 -152 -210 -138 -196 -173 -244 -206
-285 -20 -24 -36 -49 -36 -55 0 -7 29 -49 65 -94 78 -98 234 -308 318 -428 54
-78 87 -108 87 -78 0 12 105 170 185 280 30 41 112 157 183 258 321 462 415
595 460 657 96 133 182 255 289 410 64 94 173 251 242 350 69 99 139 200 156
225 17 25 51 72 75 105 73 97 78 105 243 342 87 126 207 298 268 383 60 85
131 187 156 225 25 39 49 72 52 75 7 5 121 170 121 174 0 5 85 134 128 196 22
30 57 85 78 122 22 37 45 70 53 73 10 4 81 -60 209 -187 108 -106 208 -207
224 -225 l29 -32 58 77 c31 42 63 87 71 98 8 12 51 66 95 120 44 54 87 107 95
117 8 10 22 27 30 37 8 10 42 53 75 95 33 43 94 121 135 174 42 53 102 132
135 176 176 238 270 363 366 485 111 141 185 238 350 455 54 72 137 180 184
240 47 61 93 121 103 135 9 14 49 66 87 117 39 50 95 125 125 167 88 121 158
214 239 316 42 53 110 140 151 194 41 54 105 135 141 180 36 44 117 149 179
231 213 280 273 360 337 440 69 87 150 192 258 335 39 51 97 126 130 168 33
41 83 106 110 143 28 37 70 95 95 128 25 32 63 85 85 117 34 48 111 147 254
324 15 19 63 82 106 140 43 58 81 107 85 110 6 5 66 84 183 238 86 115 169
222 403 521 l66 84 -144 144 c-237 239 -869 830 -898 841 -5 2 -21 -13 -37
-33z"/>
<path d="M4144 33213 c-127 -169 -269 -362 -316 -428 -84 -119 -319 -460 -331
-481 -4 -7 8 -19 31 -29 20 -10 93 -45 162 -78 69 -33 153 -72 187 -88 33 -15
108 -50 165 -77 123 -59 238 -112 243 -112 2 0 61 -27 130 -60 69 -33 128 -60
130 -60 3 0 42 -18 87 -39 46 -21 106 -49 133 -61 28 -12 115 -54 195 -92 80
-39 188 -91 240 -115 52 -25 131 -62 175 -83 44 -21 112 -52 150 -70 167 -77
223 -103 265 -122 25 -12 106 -50 180 -85 74 -36 155 -73 180 -83 25 -10 83
-36 130 -58 47 -22 119 -56 160 -75 41 -19 143 -67 225 -107 185 -89 315 -150
320 -150 2 0 55 -24 117 -54 110 -52 171 -80 273 -126 28 -12 88 -40 135 -62
47 -22 109 -51 138 -64 28 -13 76 -35 105 -48 28 -13 102 -47 162 -76 61 -29
148 -70 195 -92 47 -22 136 -65 198 -94 62 -30 115 -54 117 -54 5 0 87 -37
180 -80 33 -16 90 -42 128 -59 66 -30 132 -61 272 -126 39 -18 97 -45 130 -60
33 -15 94 -43 135 -63 41 -19 102 -47 135 -62 33 -15 103 -48 155 -72 52 -25
129 -60 170 -78 41 -18 130 -59 198 -91 68 -33 125 -59 126 -59 2 0 53 -23
112 -51 60 -28 129 -59 154 -69 25 -10 102 -45 172 -78 151 -72 207 -98 378
-172 41 -18 131 -59 199 -91 68 -33 125 -59 126 -59 2 0 32 -13 67 -29 35 -16
86 -39 113 -51 61 -28 150 -68 228 -104 138 -63 175 -79 222 -98 28 -11 84
-35 125 -55 64 -30 217 -100 350 -160 19 -9 95 -45 167 -79 73 -35 135 -64
137 -64 3 0 52 -22 111 -50 59 -27 108 -50 110 -50 3 0 82 -36 265 -122 47
-22 121 -56 165 -75 131 -58 164 -73 313 -144 79 -38 145 -69 147 -69 5 0 140
-62 270 -125 61 -29 146 -69 190 -90 44 -21 212 -102 373 -181 161 -79 298
-144 303 -144 6 0 61 52 122 117 118 123 389 373 426 392 28 15 20 27 -27 42
-35 11 -104 44 -437 212 -82 42 -184 91 -225 110 -41 19 -109 50 -150 69 -41
20 -104 49 -140 66 -36 16 -157 75 -270 130 -113 54 -230 111 -260 125 -30 14
-113 53 -185 87 -224 107 -336 160 -341 160 -2 0 -38 16 -80 35 -41 19 -77 35
-80 35 -2 0 -74 34 -160 75 -86 41 -158 75 -159 75 -2 0 -51 23 -110 50 -59
28 -108 50 -110 50 -2 0 -39 16 -82 36 -43 20 -132 61 -198 91 -151 70 -244
114 -415 196 -74 35 -157 74 -185 87 -169 76 -228 103 -384 176 -62 30 -115
54 -117 54 -5 0 -74 31 -151 67 -29 13 -53 30 -53 37 0 7 12 23 26 37 14 13
71 83 127 154 55 72 127 163 159 202 32 40 58 79 58 86 0 7 -39 30 -87 52 -49
21 -466 228 -928 460 -463 231 -899 448 -970 482 -313 149 -449 215 -740 358
-170 84 -332 162 -360 175 -82 37 -218 101 -445 213 -396 193 -692 337 -696
337 -2 0 -93 43 -201 96 -216 105 -391 189 -523 252 -181 86 -363 173 -565
272 -424 207 -683 332 -805 388 -70 32 -198 93 -513 246 -109 53 -209 99 -221
102 -19 5 -50 -32 -252 -303z"/>
<path d="M37699 32607 c-73 -64 -183 -154 -564 -462 -104 -84 -206 -168 -225
-185 -34 -30 -276 -234 -375 -315 -78 -64 -365 -304 -425 -356 -30 -26 -140
-118 -245 -205 -104 -86 -296 -248 -425 -358 -202 -173 -320 -271 -464 -386
-17 -13 -67 -56 -112 -95 -89 -78 -106 -92 -260 -220 -60 -49 -133 -113 -164
-141 -64 -58 -207 -180 -336 -285 -50 -41 -236 -198 -415 -349 -178 -152 -360
-305 -404 -340 -44 -35 -134 -112 -200 -170 -66 -58 -145 -126 -175 -150 -30
-25 -140 -119 -245 -210 -328 -286 -671 -580 -823 -709 -81 -68 -208 -176
-282 -241 -74 -65 -218 -189 -320 -276 -102 -87 -190 -163 -196 -169 -6 -5
-48 -41 -94 -80 -70 -59 -312 -265 -516 -440 -27 -24 -149 -128 -271 -232
-121 -103 -282 -242 -358 -308 -76 -66 -163 -140 -194 -164 -31 -25 -58 -47
-61 -51 -11 -13 -482 -421 -610 -528 -47 -39 -308 -261 -340 -288 -112 -97
-196 -164 -257 -205 -39 -27 -74 -53 -77 -58 -4 -5 11 -47 33 -93 72 -153 208
-485 232 -566 21 -71 32 -73 97 -11 31 30 59 56 62 59 3 3 37 32 75 65 39 33
72 62 75 65 13 14 341 299 460 400 145 123 262 224 350 305 31 27 107 93 169
145 63 52 177 149 255 215 77 67 173 147 211 179 39 33 104 91 146 130 41 39
122 109 180 156 57 47 131 110 164 140 33 30 87 78 120 105 61 52 146 126 155
135 3 3 50 44 105 90 130 108 332 285 558 485 99 88 213 188 253 222 41 34 91
78 111 97 95 87 114 93 134 44 7 -18 34 -64 59 -103 26 -38 95 -146 155 -240
59 -93 109 -171 110 -172 0 -1 19 14 40 33 22 20 72 62 112 94 96 78 244 201
263 219 8 8 92 76 185 150 94 74 172 137 175 140 3 4 50 42 105 86 55 43 161
129 236 190 75 60 219 176 320 256 101 81 235 190 296 243 62 53 226 189 365
301 139 113 304 247 367 297 63 51 142 116 175 143 34 28 124 102 201 165 77
63 145 119 151 125 6 5 46 37 88 70 96 74 352 281 426 344 30 26 64 54 76 62
11 8 50 39 85 70 35 31 85 74 110 95 116 98 250 208 316 261 98 78 340 278
542 446 91 76 247 205 346 287 99 81 189 156 200 166 60 55 198 170 336 279
56 44 188 153 235 194 22 20 49 43 60 51 10 8 67 53 126 100 l106 84 -15 31
c-61 118 -689 1085 -766 1179 l-23 28 -75 -65z"/>
<path d="M1711 29031 c-77 -144 -541 -1335 -541 -1387 0 -8 11 -14 26 -14 14
0 44 -4 67 -9 23 -5 69 -14 102 -20 33 -6 121 -22 195 -36 145 -27 215 -39
310 -55 215 -36 224 -38 405 -74 259 -53 292 -59 345 -67 30 -4 80 -12 110
-18 30 -5 150 -26 265 -47 116 -20 233 -40 260 -46 54 -10 115 -21 210 -37 56
-9 152 -26 370 -66 50 -9 114 -20 143 -26 105 -18 168 -30 217 -39 28 -6 75
-14 105 -20 30 -5 116 -21 190 -35 74 -15 164 -31 200 -36 159 -25 206 -33
335 -59 35 -7 392 -69 485 -85 19 -3 58 -10 85 -16 285 -55 523 -100 585 -109
41 -6 95 -15 120 -20 25 -5 72 -13 105 -19 135 -24 232 -42 270 -51 22 -5 69
-14 105 -20 36 -6 83 -15 105 -20 22 -4 72 -13 110 -20 39 -6 93 -16 120 -21
28 -5 147 -25 265 -44 118 -19 235 -39 260 -44 25 -5 72 -14 105 -20 33 -6
119 -22 190 -35 174 -34 313 -59 460 -85 33 -5 85 -15 115 -20 77 -14 344 -60
410 -71 30 -5 82 -14 115 -20 33 -6 87 -15 120 -21 89 -14 160 -26 260 -44 80
-15 199 -36 363 -66 48 -8 86 -15 212 -39 25 -5 97 -18 160 -29 173 -31 218
-39 305 -57 44 -9 100 -20 125 -24 50 -9 93 -17 290 -55 74 -14 167 -30 205
-36 103 -15 219 -35 335 -58 90 -17 440 -81 505 -92 124 -22 214 -39 420 -79
88 -17 183 -35 210 -40 73 -14 244 -49 290 -60 22 -5 103 -21 180 -35 77 -14
161 -30 188 -35 132 -28 155 -32 187 -41 19 -4 70 -18 114 -30 l78 -23 19 25
c10 13 19 27 19 32 0 11 181 287 244 373 17 23 40 55 51 70 11 15 44 58 73 95
55 72 55 80 -3 86 -27 3 -51 7 -180 33 -22 5 -65 13 -95 19 -30 6 -73 15 -95
20 -22 5 -87 18 -145 30 -58 12 -123 26 -145 31 -22 5 -69 14 -105 20 -141 24
-160 27 -430 81 -85 17 -204 39 -265 50 -108 18 -215 39 -305 59 -165 36 -390
80 -408 80 -12 0 -31 4 -44 9 -13 5 -54 14 -93 21 -38 6 -101 18 -140 25 -38
8 -119 23 -180 34 -60 12 -134 25 -162 31 -29 5 -77 14 -105 20 -150 27 -427
81 -458 90 -19 5 -62 14 -95 19 -175 31 -537 99 -590 111 -38 8 -91 18 -225
40 -33 6 -86 14 -118 20 -31 5 -84 14 -116 20 -33 5 -81 10 -107 10 -26 0 -50
4 -54 9 -3 6 31 85 75 176 44 91 80 168 80 170 0 5 44 93 84 170 14 28 26 53
26 57 0 3 -33 12 -72 18 -40 7 -156 30 -258 52 -102 22 -203 44 -225 48 -75
14 -340 69 -410 85 -38 9 -95 20 -125 26 -30 6 -73 15 -95 19 -22 4 -65 13
-95 19 -54 11 -78 16 -215 46 -38 8 -104 22 -145 30 -41 9 -93 19 -115 24 -22
5 -65 14 -95 20 -30 6 -102 20 -160 31 -58 12 -159 32 -225 46 -66 13 -145 29
-175 35 -30 6 -71 14 -90 19 -19 5 -60 13 -90 19 -30 6 -102 21 -160 32 -58
12 -125 25 -150 30 -93 17 -167 31 -215 40 -27 6 -75 14 -105 19 -71 13 -112
21 -300 59 -85 17 -204 40 -265 52 -60 11 -130 25 -155 30 -80 17 -193 39
-275 55 -168 32 -191 36 -230 44 -55 11 -134 26 -235 44 -75 13 -206 39 -455
90 -38 8 -110 22 -160 31 -49 9 -110 20 -135 25 -25 5 -74 14 -110 20 -36 6
-85 16 -110 20 -25 5 -70 14 -100 20 -188 36 -533 102 -575 110 -27 5 -75 14
-105 20 -127 24 -474 93 -585 116 -66 13 -145 29 -175 35 -30 6 -73 15 -95 20
-22 5 -116 23 -210 40 -414 74 -374 69 -384 50z"/>
<path d="M39899 28092 c-130 -64 -328 -162 -440 -216 -112 -55 -310 -152 -439
-215 -129 -64 -282 -138 -340 -165 -58 -27 -183 -87 -279 -133 -95 -45 -175
-83 -177 -83 -3 0 -102 -48 -222 -106 -326 -160 -511 -249 -572 -277 -97 -44
-230 -107 -615 -292 -66 -31 -154 -73 -195 -93 -41 -19 -172 -82 -290 -140
-118 -57 -262 -127 -320 -154 -58 -27 -249 -121 -425 -208 -176 -87 -428 -211
-560 -275 -216 -106 -931 -461 -1030 -512 -22 -12 -58 -29 -80 -38 -22 -9 -60
-27 -85 -40 -25 -12 -290 -146 -590 -297 -300 -151 -579 -293 -620 -315 -114
-61 -454 -237 -465 -242 -18 -7 -294 -145 -520 -261 -258 -132 -710 -361
-1275 -647 -223 -113 -495 -252 -605 -308 -388 -199 -831 -421 -874 -437 -38
-15 -43 -20 -36 -40 19 -64 50 -301 71 -553 9 -104 18 -192 20 -194 2 -2 41
19 86 46 46 27 596 305 1223 617 1209 602 1199 597 1770 886 706 358 1008 513
1030 530 6 4 78 43 160 85 83 43 158 84 167 92 21 19 38 9 38 -21 0 -13 10
-67 21 -122 12 -54 25 -117 29 -139 5 -22 13 -67 20 -100 6 -33 19 -104 28
-157 10 -53 20 -100 24 -103 4 -4 23 3 43 15 55 34 230 118 420 202 189 84
229 102 465 215 85 41 180 86 210 100 30 14 123 58 205 98 177 86 282 135 289
135 10 0 193 87 581 276 272 132 511 245 620 294 28 13 87 40 133 61 45 22 84
39 86 39 2 0 77 35 167 79 90 43 198 94 239 114 41 19 122 57 180 85 58 27
175 82 260 120 148 67 217 99 585 277 88 42 178 84 200 93 22 9 80 35 128 59
48 24 90 43 93 43 3 0 83 38 177 84 179 87 305 146 312 146 2 0 70 32 152 71
81 39 209 100 283 136 74 36 169 81 210 100 41 20 158 75 260 123 102 48 208
97 235 110 28 12 92 42 144 67 241 116 364 173 370 173 3 0 17 9 30 19 l23 18
-52 169 c-133 430 -413 1215 -435 1220 -5 1 -116 -50 -246 -114z"/>
<path d="M19217 25225 c-1 -5 0 -84 4 -175 9 -196 9 -4383 0 -5870 -3 -575 -3
-1049 0 -1053 4 -5 312 -9 685 -10 l679 -1 7 80 c4 43 12 122 18 174 5 52 13
157 16 233 4 75 11 137 15 137 5 0 32 -35 61 -77 169 -253 513 -486 843 -573
17 -5 56 -15 89 -24 141 -39 246 -49 496 -50 263 0 344 9 540 61 52 14 105 28
118 31 12 2 25 8 28 13 3 5 13 9 23 9 39 0 233 90 365 168 308 184 503 363
706 646 150 209 292 496 359 726 12 41 26 85 32 98 5 13 9 34 9 47 0 13 4 26
9 29 4 3 11 25 15 48 3 24 10 68 16 98 10 61 27 177 41 290 27 222 21 672 -12
850 -44 242 -74 356 -141 555 -73 214 -220 478 -401 720 -115 155 -357 381
-532 499 -191 129 -569 270 -805 300 -331 43 -615 17 -930 -84 -83 -27 -86
-28 -205 -86 -121 -59 -179 -95 -276 -172 -82 -65 -265 -256 -309 -322 -15
-23 -30 -41 -34 -41 -3 1 -7 614 -9 1364 l-3 1362 -757 5 c-500 3 -758 2 -760
-5z m2758 -3230 c209 -36 364 -118 525 -276 176 -174 270 -368 339 -704 6 -27
16 -128 23 -223 12 -175 3 -393 -23 -526 -33 -177 -28 -156 -75 -301 -76 -237
-227 -442 -424 -575 -187 -126 -327 -170 -540 -170 -232 1 -443 67 -606 191
-357 272 -484 593 -485 1223 -1 473 50 692 217 946 159 243 441 406 749 434
61 5 211 -4 300 -19z"/>
<path d="M26435 24505 c-44 -8 -199 -25 -345 -39 -146 -15 -299 -30 -340 -35
-41 -6 -129 -15 -195 -21 -66 -6 -149 -15 -185 -20 -36 -5 -112 -12 -170 -15
-58 -4 -113 -9 -123 -11 -17 -5 -18 -40 -17 -632 l1 -627 -348 -3 -348 -2 3
-548 c2 -301 6 -550 10 -554 4 -4 153 -3 332 1 210 5 330 4 338 -3 11 -8 12
-217 6 -1150 -6 -1129 -2 -1385 27 -1536 33 -178 40 -204 86 -333 40 -114 85
-202 156 -307 65 -96 84 -120 169 -207 181 -186 471 -321 838 -392 253 -49
728 -42 995 14 134 28 291 68 299 76 5 4 10 271 11 602 1 327 5 599 9 606 16
26 -7 30 -57 10 -244 -98 -553 -102 -753 -9 -79 37 -178 133 -216 211 -35 72
-55 168 -62 294 -3 55 -6 552 -7 1105 l-2 1004 533 3 c293 1 534 4 535 5 2 2
5 252 6 556 l3 554 -536 -1 -536 -2 -7 22 c-4 13 -6 331 -4 708 4 604 2 686
-11 687 -8 1 -51 -4 -95 -11z"/>
<path d="M8070 24499 c-134 -9 -568 -35 -740 -44 -58 -4 -166 -11 -240 -16
-156 -11 -456 -29 -975 -58 -226 -13 -475 -29 -540 -36 -27 -3 -129 -10 -225
-15 -96 -6 -236 -15 -310 -20 -204 -16 -569 -39 -935 -59 -99 -6 -247 -15
-330 -21 -82 -5 -256 -16 -385 -25 -129 -8 -300 -19 -380 -25 -80 -6 -212 -15
-295 -20 -82 -6 -215 -14 -295 -20 -80 -5 -221 -14 -315 -20 -93 -5 -228 -14
-300 -19 -325 -24 -432 -31 -595 -41 -317 -19 -685 -46 -847 -61 -101 -10
-112 -13 -117 -33 -22 -89 -113 -813 -146 -1161 -11 -115 -22 -234 -25 -262
-4 -39 -2 -53 7 -53 7 0 58 5 113 10 88 9 482 38 950 70 141 10 207 15 530 39
72 6 195 15 275 21 441 31 660 47 1145 81 77 5 205 14 285 19 175 12 373 27
455 35 93 9 663 54 825 65 137 10 241 18 475 40 191 18 331 30 455 40 69 5
208 16 310 25 102 8 246 20 320 25 74 6 182 15 240 20 58 5 166 14 240 20 233
18 382 31 480 40 52 5 190 16 305 24 316 23 478 35 600 46 61 5 166 14 235 20
69 6 175 15 235 21 61 5 241 21 400 34 160 14 337 29 395 35 154 14 334 29
425 35 44 3 127 10 185 15 138 13 271 24 580 49 457 37 649 53 830 71 98 9
145 14 635 55 399 34 497 43 668 56 l147 12 11 41 c6 23 18 66 28 96 10 30 24
75 31 100 13 44 61 180 102 290 11 30 31 78 44 105 13 28 26 64 30 81 l6 31
-59 -8 c-53 -8 -379 -32 -783 -59 -85 -6 -202 -14 -260 -20 -58 -5 -172 -14
-255 -20 -82 -6 -197 -15 -255 -20 -58 -5 -172 -14 -255 -20 -82 -6 -193 -15
-245 -20 -52 -5 -165 -14 -250 -20 -85 -6 -213 -15 -285 -20 -71 -6 -188 -15
-260 -20 -71 -5 -184 -14 -250 -20 -66 -6 -172 -15 -235 -20 -397 -31 -1169
-105 -1260 -120 -30 -6 -77 -11 -105 -12 -60 -4 -59 -11 -21 167 14 66 34 172
46 235 18 104 25 135 46 223 l6 27 -98 -1 c-55 -1 -155 -6 -224 -10z"/>
<path d="M41230 23309 c-138 -32 -249 -56 -325 -70 -27 -6 -68 -14 -90 -19
-56 -13 -293 -63 -430 -92 -104 -21 -132 -27 -185 -37 -30 -6 -118 -25 -195
-42 -195 -44 -213 -48 -272 -58 -28 -6 -80 -17 -115 -25 -35 -8 -90 -20 -123
-26 -33 -6 -76 -15 -95 -20 -33 -9 -197 -43 -285 -60 -58 -11 -229 -47 -310
-65 -171 -38 -234 -51 -301 -64 -28 -5 -80 -16 -115 -25 -35 -8 -120 -27 -189
-41 -69 -14 -143 -30 -165 -35 -22 -5 -65 -14 -95 -20 -30 -7 -71 -16 -90 -20
-55 -14 -114 -27 -290 -65 -91 -20 -183 -40 -205 -45 -22 -5 -56 -11 -75 -14
-19 -3 -111 -21 -205 -41 -93 -20 -192 -41 -220 -46 -27 -5 -68 -13 -90 -18
-79 -18 -151 -33 -190 -41 -37 -8 -135 -29 -405 -90 -19 -4 -161 -33 -315 -65
-154 -32 -298 -62 -320 -67 -73 -17 -393 -85 -510 -108 -37 -7 -100 -21 -185
-40 -19 -4 -120 -26 -225 -49 -203 -45 -251 -56 -415 -95 -58 -14 -159 -37
-225 -51 -178 -39 -295 -64 -340 -75 -264 -62 -303 -71 -520 -115 -93 -19
-219 -46 -280 -60 -113 -26 -279 -61 -350 -75 -83 -16 -143 -29 -247 -55 -59
-14 -131 -30 -160 -36 -29 -6 -72 -15 -95 -20 -91 -19 -132 -28 -253 -52 -129
-27 -289 -62 -350 -77 -19 -5 -48 -12 -65 -15 -16 -4 -95 -22 -175 -41 -145
-33 -194 -44 -292 -65 -29 -6 -69 -15 -88 -19 -19 -5 -62 -14 -95 -20 -33 -7
-73 -16 -90 -20 -16 -5 -48 -11 -70 -15 -22 -3 -78 -15 -125 -26 -47 -10 -105
-23 -130 -28 -51 -11 -128 -29 -285 -66 -98 -24 -225 -51 -355 -76 -62 -12
-102 -21 -285 -64 -199 -47 -226 -53 -295 -65 -30 -6 -70 -13 -87 -16 -37 -7
-34 0 -53 -169 -6 -55 -15 -127 -20 -160 -5 -33 -14 -94 -20 -135 -12 -80 -26
-159 -41 -227 -14 -66 -12 -93 9 -93 10 0 22 4 28 8 18 16 135 46 369 97 66
14 140 31 165 36 65 15 121 27 155 34 17 3 46 10 65 14 19 5 105 23 190 40
256 51 264 53 285 61 26 10 168 42 330 75 72 15 146 30 165 35 19 5 60 13 90
19 94 18 163 32 225 46 60 14 216 49 290 65 22 5 65 14 95 21 52 11 102 22
302 69 48 11 111 25 140 31 29 6 69 15 88 19 86 19 500 103 541 111 25 4 77
15 115 24 123 29 148 34 249 56 55 12 116 25 135 29 19 4 60 13 90 20 30 7 73
16 95 21 22 5 63 13 90 19 57 11 131 27 290 64 61 14 135 31 165 38 30 6 69
17 86 24 16 7 35 10 41 6 7 -5 8 -104 2 -332 -5 -194 -5 -328 1 -334 5 -5 20
-5 37 2 30 12 269 70 398 97 44 10 98 21 120 26 22 5 63 13 90 18 28 5 129 26
225 46 96 20 200 41 230 46 30 6 75 15 100 20 25 6 65 14 90 18 45 8 116 23
330 66 63 13 144 28 180 35 147 27 178 33 235 46 33 7 130 27 215 44 85 16
175 34 200 39 25 5 70 14 100 20 30 6 98 19 150 30 52 11 131 27 175 36 44 9
98 20 120 25 22 4 67 14 100 20 33 6 76 15 95 20 92 23 264 59 430 90 186 36
241 47 305 61 56 12 280 57 343 69 112 21 169 32 212 41 25 5 81 16 125 25 44
9 132 27 195 40 63 13 140 29 170 35 30 6 73 15 95 19 22 5 58 11 80 15 54 8
121 21 240 46 94 20 166 34 295 60 30 6 73 15 95 19 22 5 51 11 65 13 26 5
243 52 315 68 22 5 65 14 95 19 30 5 73 14 95 19 77 16 490 99 613 122 31 6
73 15 92 20 19 5 105 23 190 40 85 18 173 36 195 40 22 5 63 14 90 19 28 5 70
15 95 20 25 6 66 15 92 20 80 15 87 22 82 82 -2 29 -11 159 -19 288 -30 454
-97 1112 -114 1109 -3 -1 -62 -14 -131 -30z"/>
<path d="M14597 23100 l-738 -5 1 -1598 c0 -1535 4 -1755 31 -1912 5 -33 15
-87 20 -120 10 -59 13 -73 44 -190 25 -95 94 -273 137 -355 120 -227 298 -453
443 -560 347 -257 699 -362 1170 -347 209 7 458 42 489 69 6 4 17 8 26 8 20 0
175 62 249 100 137 69 260 154 382 263 109 97 138 129 235 261 38 52 72 95 76
95 4 1 9 -155 10 -346 l3 -348 705 1 705 1 2 2129 c1 1171 0 2292 -4 2492 l-6
362 -743 -2 -744 -3 0 -1485 c0 -1595 1 -1573 -51 -1730 -69 -213 -225 -404
-409 -503 -130 -70 -321 -117 -475 -117 -89 0 -239 33 -320 71 -198 91 -334
263 -396 499 -45 173 -43 86 -47 1733 l-3 1547 -27 -2 c-15 -2 -359 -5 -765
-8z"/>
<path d="M12556 22292 c-3 -5 -36 -22 -73 -37 -38 -15 -77 -31 -88 -36 -11 -4
-78 -29 -150 -55 -71 -25 -159 -57 -195 -71 -36 -14 -96 -36 -135 -48 -38 -13
-108 -38 -155 -55 -110 -40 -219 -79 -405 -145 -82 -29 -181 -64 -220 -78 -38
-14 -117 -42 -175 -62 -58 -20 -114 -40 -125 -45 -28 -12 -153 -56 -200 -71
-22 -7 -85 -29 -140 -49 -55 -21 -149 -54 -210 -74 -119 -39 -136 -45 -325
-112 -69 -25 -152 -54 -185 -65 -33 -11 -105 -38 -160 -59 -136 -51 -125 -47
-265 -97 -69 -25 -134 -47 -145 -50 -11 -3 -67 -23 -125 -44 -58 -21 -150 -54
-205 -74 -55 -20 -109 -40 -120 -45 -11 -5 -78 -30 -150 -56 -71 -25 -139 -50
-150 -55 -11 -4 -40 -15 -65 -23 -69 -22 -222 -82 -285 -111 -31 -14 -60 -25
-64 -25 -5 0 -30 -9 -55 -20 -51 -22 -59 -17 -62 40 -4 81 -26 335 -30 341 -2
3 -4 67 -5 142 0 76 -5 140 -10 143 -8 4 -184 -58 -324 -116 -11 -4 -42 -15
-70 -23 -49 -15 -139 -45 -340 -114 -55 -19 -147 -50 -205 -68 -132 -43 -230
-76 -345 -119 -49 -18 -108 -39 -130 -45 -22 -7 -49 -16 -60 -20 -11 -5 -99
-34 -195 -65 -96 -31 -184 -61 -195 -66 -11 -4 -29 -11 -40 -13 -33 -9 -270
-92 -430 -152 -82 -30 -346 -121 -585 -200 -239 -80 -444 -149 -455 -154 -11
-5 -49 -18 -85 -30 -206 -68 -520 -176 -620 -211 -63 -23 -126 -45 -140 -50
-14 -5 -110 -38 -215 -75 -104 -37 -230 -80 -280 -97 -49 -16 -99 -34 -110
-39 -11 -5 -78 -29 -150 -54 -71 -25 -138 -49 -147 -55 -10 -5 -27 -10 -38
-10 -11 0 -28 -4 -38 -10 -9 -5 -62 -25 -117 -44 -55 -19 -210 -73 -345 -120
-135 -48 -261 -91 -280 -97 -19 -6 -44 -14 -55 -19 -19 -8 -146 -52 -385 -132
-63 -21 -124 -42 -135 -47 -11 -4 -38 -14 -60 -20 -22 -7 -49 -16 -60 -21 -32
-14 -998 -346 -1105 -379 -30 -10 -30 -11 6 -321 41 -356 160 -1154 179 -1207
2 -8 29 -2 87 19 46 16 94 34 108 38 14 4 104 38 200 75 96 37 186 71 200 75
14 5 70 25 125 45 55 20 134 47 175 61 41 13 83 29 92 34 10 6 25 10 33 10 8
0 23 4 33 10 9 5 62 26 117 46 118 42 202 73 230 84 53 21 142 53 265 94 74
25 149 51 165 56 17 6 77 27 135 46 58 19 114 39 125 44 52 21 303 110 375
132 19 6 87 31 150 55 64 23 119 43 123 43 4 0 26 9 50 19 42 19 237 91 357
131 63 21 234 83 275 100 31 13 118 45 260 95 72 26 139 50 150 55 11 4 47 17
80 28 106 36 269 93 290 102 47 19 231 85 445 159 96 33 258 89 360 125 102
35 232 81 290 101 58 20 114 40 125 45 11 5 58 22 105 38 138 48 184 64 205
73 11 4 49 17 85 29 36 12 79 28 95 35 17 7 86 32 155 55 69 23 188 66 265 95
77 30 214 79 305 110 91 31 217 76 280 100 63 24 135 50 160 59 25 8 90 31
145 51 55 20 118 43 140 51 22 8 49 18 60 24 11 5 40 16 65 24 25 8 77 27 115
41 39 15 120 45 180 67 309 111 364 131 415 147 78 26 222 80 242 92 10 5 24
9 32 9 11 0 50 14 141 50 11 5 67 25 125 45 58 20 116 41 130 47 32 14 56 23
100 38 34 12 190 72 240 92 14 6 34 14 45 19 11 4 72 26 135 48 63 21 167 58
230 81 63 23 167 59 230 81 63 22 124 44 135 49 11 4 34 13 50 18 121 41 214
76 247 93 10 5 26 9 36 9 10 0 22 3 25 7 8 7 58 26 227 84 63 22 123 44 132
49 10 6 23 10 30 10 10 0 197 68 273 100 54 22 160 61 216 80 35 11 73 25 84
29 11 5 58 23 105 41 47 18 94 36 105 40 20 8 172 64 270 100 28 10 93 34 145
53 52 20 142 51 200 69 l104 33 3 165 c3 131 22 465 36 610 2 25 -25 41 -37
22z"/>
<path d="M12622 20167 c-22 -21 -236 -167 -752 -514 -129 -86 -382 -259 -562
-383 -325 -224 -529 -364 -624 -429 -260 -178 -743 -513 -1137 -789 -144 -100
-320 -221 -392 -269 -71 -47 -182 -124 -245 -171 -63 -47 -146 -109 -185 -137
-87 -65 -118 -85 -126 -85 -4 0 -24 46 -44 103 -21 56 -48 125 -60 152 -86
191 -104 235 -118 275 -8 25 -20 57 -26 73 l-11 27 -57 -44 c-32 -25 -129 -91
-215 -148 -87 -57 -276 -183 -420 -281 -909 -616 -1343 -907 -2033 -1361 -181
-120 -346 -229 -365 -243 -19 -13 -111 -74 -205 -136 -93 -61 -280 -186 -415
-276 -325 -219 -382 -256 -400 -263 -16 -7 -294 -190 -456 -300 -172 -117
-221 -150 -584 -392 -195 -129 -364 -242 -375 -250 -11 -7 -101 -67 -200 -131
-557 -364 -1245 -829 -1245 -842 0 -50 403 -1005 582 -1380 10 -20 24 -12 302
175 160 108 419 282 576 387 157 105 330 222 385 260 150 102 219 149 237 160
25 15 319 214 550 373 115 78 210 142 213 142 3 0 38 24 78 53 39 29 113 80
162 112 50 32 92 62 95 65 3 4 128 90 278 191 150 101 316 214 370 251 53 37
234 160 402 273 168 113 357 241 420 285 63 43 246 167 405 275 480 325 817
554 968 658 78 55 205 142 282 195 77 54 168 117 202 142 34 25 101 72 150
105 48 33 159 111 248 174 88 63 192 136 230 163 39 26 99 68 135 94 36 26
155 109 265 185 110 76 250 174 310 218 61 43 229 161 375 262 231 159 585
412 600 428 3 4 50 36 105 73 55 37 143 97 195 133 52 37 131 91 175 121 44
29 107 73 141 96 78 55 370 259 398 278 11 8 74 53 139 100 66 47 145 103 176
125 103 72 240 169 390 278 32 23 69 50 82 59 13 9 110 78 214 153 188 134
292 207 367 255 142 93 268 189 268 205 0 7 -7 30 -16 51 -15 35 -52 167 -76
269 -5 22 -13 56 -17 75 -25 101 -51 246 -51 281 0 46 -20 51 -58 16z"/>
<path d="M28482 18716 c-6 -15 -12 -31 -12 -37 0 -5 -8 -28 -19 -52 -24 -54
-65 -152 -82 -197 -7 -19 -21 -50 -31 -68 -10 -18 -18 -37 -18 -43 0 -5 -27
-66 -61 -135 -33 -69 -59 -128 -56 -130 3 -3 61 -7 129 -9 117 -4 297 -13 673
-35 250 -14 513 -28 745 -40 216 -10 475 -23 805 -40 110 -6 378 -20 595 -31
217 -11 490 -24 605 -30 116 -5 305 -13 420 -19 248 -12 719 -28 859 -29 l98
-1 -5 -27 c-3 -16 -15 -59 -26 -98 -12 -38 -31 -99 -41 -135 -10 -36 -26 -90
-35 -120 -30 -102 -55 -191 -58 -207 -1 -9 43 -13 168 -17 94 -3 249 -10 345
-15 96 -6 274 -16 395 -21 121 -5 317 -14 435 -20 217 -9 585 -30 890 -50 91
-6 257 -15 370 -21 113 -5 284 -14 380 -19 96 -5 263 -14 370 -20 107 -5 276
-14 375 -20 99 -5 315 -17 480 -25 165 -8 377 -20 470 -26 167 -10 309 -18
670 -39 99 -5 277 -14 395 -20 372 -17 617 -29 875 -45 326 -20 561 -33 820
-45 116 -5 309 -15 430 -22 121 -6 240 -12 265 -12 l45 -1 22 110 c53 267 172
1027 199 1271 l6 61 -173 7 c-96 4 -255 11 -354 16 -425 21 -1051 49 -1320 60
-159 6 -360 15 -445 20 -85 6 -202 10 -260 10 -58 0 -193 4 -300 10 -402 21
-615 31 -960 45 -861 35 -1260 50 -1715 65 -176 6 -347 13 -380 16 -33 2 -193
9 -355 14 -474 16 -1514 54 -1915 70 -132 5 -382 15 -555 20 -380 13 -780 27
-1110 40 -135 5 -371 14 -525 19 -154 6 -453 17 -665 26 -212 8 -527 20 -700
25 -495 16 -853 29 -1005 36 l-141 7 -12 -27z"/>
<path d="M13269 18168 c-27 -39 -204 -250 -245 -293 -16 -16 -85 -95 -154
-175 -69 -80 -127 -147 -130 -150 -3 -3 -39 -45 -80 -95 -41 -49 -128 -151
-195 -225 -66 -74 -151 -173 -190 -220 -38 -47 -85 -103 -105 -126 -80 -92
-146 -169 -165 -193 -10 -14 -22 -28 -25 -31 -3 -3 -32 -36 -65 -75 -33 -38
-79 -90 -101 -115 -23 -25 -88 -99 -144 -165 -56 -66 -137 -160 -179 -209 -42
-49 -86 -103 -98 -119 -12 -16 -36 -45 -55 -65 -18 -21 -56 -64 -83 -97 -28
-33 -52 -62 -56 -65 -3 -3 -57 -66 -120 -140 -119 -141 -157 -185 -174 -204
-6 -6 -75 -87 -154 -181 -183 -217 -169 -201 -281 -330 -53 -61 -107 -124
-120 -141 -110 -140 -226 -281 -239 -292 -13 -10 -24 -4 -69 40 -96 94 -300
316 -342 373 -25 33 -45 52 -54 49 -7 -3 -43 -44 -79 -92 -36 -48 -130 -157
-209 -243 -79 -86 -198 -219 -265 -295 -68 -77 -164 -184 -214 -239 -51 -55
-183 -203 -294 -330 -111 -126 -208 -237 -216 -245 -8 -8 -48 -53 -90 -100
-41 -47 -154 -173 -250 -280 -96 -107 -188 -211 -204 -230 -44 -50 -197 -222
-220 -246 -33 -34 -199 -216 -241 -264 -64 -73 -288 -323 -453 -505 -338 -373
-361 -398 -447 -494 -53 -60 -113 -126 -295 -325 -85 -92 -178 -196 -208 -230
-146 -166 -277 -311 -516 -566 -67 -71 -230 -250 -370 -405 -60 -67 -151 -166
-201 -221 -218 -237 -435 -476 -509 -559 -44 -49 -109 -121 -145 -160 -37 -38
-93 -99 -126 -135 -33 -36 -79 -85 -102 -110 -23 -25 -42 -50 -42 -56 0 -34
901 -1187 940 -1202 4 -1 22 14 40 35 19 21 68 76 110 123 80 88 295 330 365
409 22 25 98 111 170 190 71 79 172 191 224 250 51 58 108 122 125 141 17 19
63 71 101 115 71 81 145 161 271 295 63 66 185 204 363 410 60 70 123 139 212
235 69 74 368 409 428 479 24 28 71 83 106 121 34 39 133 151 220 250 88 99
190 214 228 255 39 41 115 129 170 195 55 66 139 163 186 215 138 150 159 174
330 375 89 105 190 221 224 259 34 38 69 78 77 90 14 21 156 180 255 286 28
30 94 107 147 170 53 63 169 198 257 300 174 200 404 469 644 755 84 98 183
215 222 260 38 44 81 93 95 109 14 17 41 48 61 70 19 23 125 149 234 281 110
132 202 242 205 245 14 12 221 256 285 335 39 48 75 93 80 99 6 6 18 22 27 35
9 13 47 58 85 99 37 41 77 87 88 102 20 26 176 211 378 448 59 70 133 159 164
197 32 39 74 88 94 110 20 22 50 56 65 75 16 19 31 37 34 40 3 3 24 27 45 55
54 67 68 84 85 105 8 9 31 37 51 61 20 24 94 113 165 198 71 84 138 165 148
180 11 14 51 61 89 104 38 43 86 99 106 126 43 59 160 201 271 331 45 52 109
129 142 170 70 85 147 170 254 281 41 41 74 83 74 91 0 9 -11 29 -24 45 -59
71 -256 404 -313 529 -38 85 -50 91 -84 42z"/>
<path d="M27579 16983 c-8 -2 -23 -17 -33 -33 -9 -17 -65 -94 -124 -171 -59
-78 -120 -160 -136 -183 -40 -57 -115 -145 -151 -178 -25 -23 -28 -29 -15 -38
8 -5 26 -10 40 -10 13 0 81 -20 150 -44 69 -24 148 -50 175 -59 173 -53 299
-90 360 -108 106 -29 118 -33 280 -84 217 -69 365 -115 405 -127 19 -6 43 -14
52 -19 10 -5 25 -9 34 -9 9 0 42 -9 73 -19 31 -11 101 -31 156 -46 55 -15 127
-35 160 -45 33 -10 94 -28 135 -40 41 -12 122 -37 180 -55 58 -18 139 -43 180
-55 41 -13 109 -33 150 -46 41 -12 109 -32 150 -45 41 -12 95 -28 120 -36 25
-8 70 -21 100 -29 30 -8 118 -35 195 -59 77 -25 156 -50 175 -55 37 -10 139
-41 300 -91 52 -16 113 -34 135 -40 22 -6 51 -15 65 -19 14 -5 66 -20 115 -35
50 -15 101 -30 115 -35 14 -4 43 -13 65 -19 22 -6 69 -19 105 -30 36 -10 101
-29 145 -41 44 -12 139 -41 210 -65 134 -44 220 -69 268 -79 34 -8 34 -23 -1
-66 -32 -39 -118 -179 -177 -285 -21 -38 -51 -89 -67 -112 -32 -48 -37 -83
-10 -83 42 0 188 -42 422 -122 80 -28 159 -53 175 -58 17 -4 98 -30 180 -57
550 -183 894 -294 1000 -325 22 -6 96 -30 165 -54 69 -23 157 -52 195 -64 273
-85 363 -113 380 -120 30 -13 126 -44 260 -85 66 -21 179 -56 250 -80 353
-116 618 -200 810 -257 39 -12 115 -35 170 -53 55 -18 154 -49 220 -70 66 -20
131 -40 145 -45 14 -4 72 -22 130 -40 58 -18 123 -39 145 -48 55 -20 254 -85
345 -112 90 -27 37 -9 540 -174 440 -144 626 -203 675 -216 17 -4 82 -25 145
-45 63 -20 129 -41 145 -45 17 -5 136 -44 265 -88 129 -43 303 -100 385 -127
83 -26 278 -90 434 -142 156 -51 285 -92 286 -91 41 47 609 1362 593 1372 -2
1 -70 24 -153 50 -82 27 -175 57 -205 67 -85 28 -340 108 -385 120 -22 6 -49
15 -60 20 -11 4 -67 22 -125 39 -172 51 -219 66 -340 105 -63 20 -128 41 -145
45 -16 5 -59 17 -95 28 -233 72 -312 96 -370 112 -36 10 -99 29 -140 43 -251
83 -665 215 -750 237 -19 5 -84 25 -145 44 -60 19 -157 49 -215 66 -58 18
-114 36 -125 40 -21 9 -224 73 -285 90 -19 6 -111 33 -205 61 -93 28 -183 55
-200 59 -16 5 -61 18 -100 30 -38 12 -83 25 -100 30 -16 5 -70 20 -120 35 -83
24 -106 31 -190 55 -16 4 -75 22 -130 40 -133 42 -264 83 -350 108 -38 11
-124 37 -190 57 -117 34 -136 40 -220 63 -118 33 -297 86 -345 101 -30 10 -89
28 -130 40 -41 13 -86 26 -100 31 -22 7 -203 60 -310 90 -19 6 -129 38 -245
71 -115 33 -241 69 -280 79 -38 10 -95 26 -125 35 -30 9 -68 20 -85 25 -16 5
-61 18 -100 30 -38 12 -93 28 -122 35 -28 8 -98 28 -155 45 -56 18 -134 40
-173 50 -38 11 -140 40 -225 65 -85 26 -177 53 -205 60 -45 12 -119 33 -350
97 -38 11 -101 28 -140 39 -38 10 -104 28 -145 40 -41 12 -100 28 -130 36 -55
14 -97 26 -157 44 -18 5 -48 13 -65 18 -18 5 -78 23 -133 41 -55 17 -122 37
-150 45 -27 8 -97 28 -155 45 -58 17 -168 49 -245 71 -242 68 -286 81 -440
129 -55 18 -113 36 -130 40 -16 5 -100 29 -185 54 -135 41 -210 62 -335 96
-16 4 -77 22 -133 39 -106 32 -162 48 -287 81 -38 10 -140 39 -225 65 -85 26
-168 50 -185 55 -16 4 -50 14 -75 22 -64 22 -212 65 -370 108 -129 35 -377
109 -405 120 -11 4 -36 13 -55 20 -19 6 -46 17 -60 24 -14 7 -32 11 -41 9z"/>
<path d="M14426 16493 c-3 -3 -6 -16 -6 -28 0 -31 -41 -129 -125 -295 -286
-570 -711 -1426 -887 -1790 -223 -457 -253 -521 -298 -615 -26 -55 -80 -166
-119 -247 -39 -81 -71 -149 -71 -152 0 -5 -134 -283 -273 -566 -105 -216 -180
-372 -229 -479 -16 -36 -35 -79 -43 -95 -34 -73 -105 -250 -105 -261 0 -7 -7
-18 -15 -25 -12 -10 -23 -5 -62 27 -46 38 -75 60 -336 256 -115 87 -147 100
-147 59 0 -10 -4 -22 -8 -27 -5 -6 -21 -41 -37 -80 -33 -78 -109 -232 -186
-375 -28 -52 -107 -205 -176 -340 -123 -240 -209 -405 -263 -505 -15 -27 -62
-117 -105 -200 -43 -82 -98 -188 -123 -235 -25 -47 -120 -233 -212 -415 -92
-181 -178 -350 -192 -375 -55 -98 -104 -190 -161 -300 -33 -63 -89 -171 -124
-240 -36 -69 -137 -266 -224 -437 -87 -172 -175 -343 -195 -380 -90 -166 -390
-751 -556 -1084 -70 -141 -142 -281 -159 -310 -31 -52 -274 -530 -521 -1024
-129 -260 -163 -327 -243 -480 -224 -429 -324 -622 -401 -773 l-62 -122 162
-127 c232 -183 570 -436 806 -604 231 -164 259 -183 264 -178 2 2 54 103 116
224 304 595 476 935 723 1430 356 714 447 894 457 914 15 26 1073 2155 1370
2756 149 303 365 739 480 970 114 231 244 494 287 585 44 91 125 257 181 370
109 223 232 481 232 486 0 2 30 65 66 141 144 300 174 363 174 368 0 3 27 62
61 132 74 155 120 253 147 313 11 25 57 122 102 215 80 165 118 246 165 350
41 92 77 169 113 245 19 41 56 122 82 180 26 58 75 161 107 230 33 69 69 145
79 170 10 25 58 124 105 221 48 97 97 198 109 225 37 83 113 242 264 558 42
87 76 160 76 162 0 2 71 149 159 327 87 177 170 347 185 377 46 96 105 201
131 232 14 16 25 37 25 46 0 8 -82 99 -183 201 -101 102 -220 231 -266 286
-86 102 -103 119 -115 108z"/>
<path d="M26153 15468 c-21 -18 -44 -39 -51 -45 -7 -7 -41 -34 -75 -60 -34
-25 -96 -77 -137 -113 -41 -37 -128 -102 -193 -144 -64 -43 -117 -81 -117 -85
0 -4 24 -18 53 -32 42 -21 261 -146 379 -218 15 -9 150 -90 300 -180 150 -90
291 -175 312 -189 22 -13 65 -38 95 -55 31 -17 93 -54 139 -84 45 -29 84 -53
86 -53 5 0 199 -114 316 -185 106 -64 126 -76 220 -130 36 -21 79 -45 95 -55
17 -10 59 -34 93 -54 35 -20 77 -45 92 -56 15 -11 31 -20 33 -20 3 0 57 -30
119 -67 62 -36 140 -82 173 -101 94 -54 115 -66 200 -117 103 -62 357 -210
415 -243 25 -14 77 -43 115 -65 39 -22 86 -48 105 -59 19 -11 40 -24 45 -28 6
-5 75 -45 155 -90 191 -109 169 -95 460 -270 140 -84 283 -166 317 -182 34
-15 65 -33 69 -39 4 -7 -17 -34 -47 -63 -58 -55 -152 -159 -268 -296 -39 -46
-78 -88 -86 -93 -25 -14 -17 -42 18 -60 69 -35 293 -171 394 -239 40 -26 74
-48 77 -48 3 0 54 -33 113 -73 116 -78 499 -317 508 -317 3 0 88 -53 188 -119
244 -158 326 -211 331 -211 6 0 142 -83 260 -159 87 -56 315 -198 458 -285 37
-23 134 -83 215 -135 81 -51 162 -101 178 -111 17 -9 80 -48 140 -85 61 -37
200 -122 310 -188 110 -66 245 -149 300 -185 116 -75 305 -192 311 -192 2 0
46 -26 96 -59 51 -32 165 -103 253 -157 88 -54 196 -120 240 -147 44 -27 118
-72 165 -100 108 -63 277 -168 355 -220 33 -22 74 -48 90 -57 17 -10 77 -47
135 -82 380 -236 659 -406 780 -476 52 -31 167 -100 255 -155 88 -55 207 -129
265 -165 58 -36 146 -91 195 -122 50 -32 131 -82 180 -112 50 -31 151 -92 225
-138 100 -60 139 -80 150 -73 49 31 910 1147 910 1181 0 4 -26 23 -57 42 -169
100 -217 129 -308 188 -55 36 -172 109 -260 162 -149 91 -221 135 -465 285
-52 32 -115 70 -140 85 -25 15 -85 52 -133 83 -48 31 -89 57 -91 57 -4 0 -141
83 -301 182 -49 30 -138 85 -198 122 -59 36 -109 66 -111 66 -2 0 -59 34 -126
75 -67 41 -124 75 -126 75 -2 0 -101 59 -221 131 -120 73 -281 168 -358 214
-77 45 -160 94 -185 110 -25 16 -108 65 -185 110 -77 45 -223 133 -325 195
-329 202 -482 294 -630 379 -80 47 -171 101 -202 123 -31 21 -59 38 -62 38 -4
0 -186 110 -426 257 -36 22 -85 51 -110 65 -84 47 -115 65 -230 135 -63 38
-160 96 -215 128 -55 32 -178 105 -273 162 -95 57 -174 103 -176 103 -3 0 -44
24 -93 53 -120 73 -317 188 -378 222 -27 15 -98 56 -158 91 -59 35 -110 64
-113 64 -2 0 -17 8 -32 19 -15 10 -119 72 -232 137 -113 64 -240 139 -283 166
-43 26 -81 48 -83 48 -2 0 -37 20 -77 44 -39 24 -88 53 -107 64 -180 102 -245
139 -330 185 -30 16 -81 45 -113 63 -32 19 -60 34 -62 34 -2 0 -54 31 -117 69
-62 37 -147 87 -188 111 -41 23 -88 50 -105 60 -75 43 -237 137 -305 175 -41
23 -99 56 -128 74 -29 17 -55 31 -57 31 -3 0 -29 16 -59 35 -30 19 -58 35 -61
35 -4 0 -19 8 -33 19 -15 10 -63 37 -107 61 -44 24 -84 46 -90 50 -5 4 -30 19
-55 32 -25 14 -139 81 -255 148 -283 165 -433 250 -441 250 -2 0 -28 15 -57
34 -52 33 -82 51 -177 104 -121 67 -203 115 -360 207 -63 38 -146 86 -185 108
-38 22 -102 59 -141 82 -38 24 -106 62 -150 86 -171 92 -384 224 -399 249 -10
16 -22 12 -62 -22z"/>
<path d="M15971 14988 c-17 -121 -27 -176 -62 -343 -16 -82 -34 -172 -40 -200
-5 -27 -13 -68 -18 -90 -20 -88 -24 -108 -87 -410 -13 -66 -29 -138 -33 -160
-5 -22 -15 -67 -21 -100 -13 -68 -24 -120 -39 -185 -5 -25 -22 -101 -36 -170
-43 -208 -47 -224 -55 -260 -5 -19 -13 -60 -19 -90 -6 -30 -25 -125 -42 -210
-31 -154 -40 -198 -58 -295 -6 -27 -13 -63 -16 -80 -3 -16 -10 -55 -16 -85 -6
-30 -15 -73 -20 -95 -4 -22 -20 -96 -34 -165 -40 -192 -46 -222 -55 -260 -5
-19 -14 -57 -20 -85 -5 -27 -24 -113 -41 -190 -17 -77 -35 -162 -40 -190 -6
-27 -14 -68 -19 -90 -4 -22 -13 -65 -19 -95 -6 -30 -20 -98 -31 -150 -19 -88
-45 -219 -71 -350 -6 -30 -14 -71 -19 -90 -5 -19 -13 -60 -19 -90 -6 -30 -22
-109 -35 -175 -14 -66 -28 -141 -32 -168 -3 -26 -10 -49 -14 -52 -5 -3 -44 12
-87 34 -43 21 -116 56 -163 76 -47 20 -136 61 -199 91 -62 30 -117 54 -122 54
-4 0 -11 -17 -14 -37 -4 -21 -9 -51 -11 -68 -6 -31 -48 -214 -64 -275 -5 -19
-11 -46 -14 -60 -2 -14 -12 -54 -21 -90 -25 -100 -95 -397 -116 -487 -14 -64
-26 -116 -53 -233 -13 -58 -30 -130 -36 -160 -13 -66 -33 -154 -64 -290 -56
-244 -59 -256 -85 -355 -9 -35 -30 -125 -102 -445 -11 -47 -24 -103 -30 -125
-19 -73 -28 -109 -49 -200 -39 -167 -51 -220 -70 -300 -10 -44 -26 -109 -34
-145 -20 -89 -75 -317 -86 -360 -5 -19 -13 -55 -19 -80 -6 -25 -21 -92 -35
-150 -22 -92 -47 -205 -76 -335 -5 -22 -18 -78 -29 -125 -35 -147 -77 -332
-101 -435 -5 -22 -14 -62 -19 -90 -16 -74 -87 -386 -122 -535 -26 -112 -35
-150 -54 -240 -9 -41 -29 -131 -46 -200 -16 -69 -33 -145 -38 -170 -17 -81
-76 -335 -91 -390 -5 -19 -14 -60 -21 -90 -6 -30 -15 -66 -19 -80 -4 -14 -13
-52 -20 -85 -7 -33 -28 -125 -47 -205 -19 -80 -39 -167 -45 -195 -5 -27 -14
-60 -19 -73 -5 -13 -9 -32 -9 -43 0 -11 -11 -59 -24 -107 -13 -48 -34 -130
-45 -182 -12 -52 -26 -111 -31 -130 -5 -19 -13 -55 -19 -80 -10 -46 -53 -224
-96 -405 -13 -55 -40 -167 -60 -250 -19 -82 -41 -171 -47 -198 -7 -29 -8 -50
-2 -56 41 -38 1362 -561 1417 -561 14 0 32 65 68 250 6 30 15 66 19 80 4 14
13 52 20 85 7 33 16 74 21 90 4 17 22 98 40 180 17 83 35 166 39 185 20 89 33
148 40 185 4 22 17 83 29 135 29 127 37 164 51 235 14 71 25 124 39 185 6 25
18 81 27 125 9 44 23 105 31 135 8 30 19 74 24 98 5 23 13 61 18 85 5 23 14
67 20 97 16 81 37 183 61 290 11 52 25 118 31 145 6 28 15 66 19 85 4 19 13
58 19 85 12 55 28 128 61 275 12 52 26 113 30 135 5 22 14 60 20 85 5 25 14
65 19 90 14 69 102 490 111 530 7 32 16 73 41 185 4 22 20 94 35 160 14 66 28
131 30 145 3 14 9 41 14 60 19 74 85 377 100 455 4 22 13 65 20 95 7 30 16 75
21 100 9 48 22 110 37 175 6 22 18 76 27 120 9 44 21 98 26 120 5 22 13 60 18
85 6 25 19 88 30 140 12 52 25 115 31 140 5 25 17 77 25 115 22 100 44 202 60
280 8 39 21 98 34 155 6 25 18 79 26 120 9 41 25 111 35 155 16 70 39 175 70
325 9 46 65 302 81 375 5 22 14 63 19 90 5 28 14 68 19 90 5 22 21 99 36 170
15 72 31 150 37 175 5 25 14 68 19 95 5 28 14 68 18 90 5 22 26 130 49 240 22
110 43 214 47 230 3 17 10 50 14 75 5 25 14 70 21 100 7 30 16 71 20 90 34
155 70 329 90 430 4 25 13 72 20 105 6 33 15 83 19 110 7 43 108 540 131 645
18 83 63 299 71 340 34 185 44 233 73 370 26 119 35 166 57 290 5 30 13 75 18
100 5 25 14 70 20 100 6 30 15 73 20 95 12 55 82 394 88 425 2 14 8 43 13 65
4 22 13 65 19 95 6 30 20 100 32 155 12 55 25 118 29 140 4 22 15 78 24 125 9
47 21 110 27 140 6 30 15 73 20 95 5 22 24 119 44 215 33 165 44 219 65 315 4
22 14 67 20 100 7 33 17 69 22 81 19 41 6 66 -52 97 -30 16 -82 46 -115 67
-166 103 -230 144 -235 149 -3 3 -12 11 -21 16 -41 25 -145 100 -194 141 -30
24 -56 44 -58 44 -2 0 -9 -37 -16 -82z"/>
<path d="M24425 14334 c-22 -14 -83 -46 -135 -71 -306 -145 -333 -158 -432
-202 -38 -17 -68 -35 -68 -40 0 -6 12 -17 28 -25 15 -8 153 -139 307 -293 383
-380 797 -786 1000 -978 93 -88 307 -295 475 -461 168 -165 343 -336 390 -380
47 -43 220 -212 385 -374 286 -281 547 -537 901 -884 89 -86 171 -164 183
-172 29 -20 26 -40 -6 -60 -16 -10 -104 -67 -198 -129 -93 -61 -207 -134 -252
-161 -45 -27 -83 -54 -83 -60 0 -5 37 -46 83 -90 85 -84 615 -627 797 -819
204 -214 723 -737 2182 -2200 813 -814 1485 -1489 1495 -1501 10 -12 275 -282
589 -600 313 -318 635 -646 713 -729 79 -82 147 -151 152 -153 19 -7 694 510
1032 791 l168 139 -417 422 c-230 231 -524 527 -654 656 -129 129 -368 370
-530 535 -162 166 -615 618 -1006 1005 -965 958 -1074 1064 -1964 1924 -69 66
-244 238 -390 381 -146 143 -371 361 -500 485 -276 264 -542 522 -766 745
-252 250 -578 569 -704 690 -63 60 -207 200 -320 310 -315 308 -786 764 -870
841 -41 38 -138 130 -215 205 -77 75 -180 174 -229 220 -149 140 -511 487
-780 749 -158 154 -243 240 -277 284 -25 32 -34 32 -84 0z"/>
<path d="M17819 14033 c-1 -5 -1 -11 -1 -15 2 -13 22 -452 32 -693 6 -137 15
-351 21 -475 33 -757 43 -982 58 -1365 6 -143 13 -305 16 -360 14 -272 35
-682 45 -870 5 -115 14 -295 20 -400 5 -104 15 -284 21 -400 5 -115 16 -280
24 -365 7 -87 9 -159 5 -164 -5 -5 -27 -4 -52 2 -24 6 -72 16 -108 22 -36 6
-83 15 -105 20 -22 5 -65 13 -95 19 -30 7 -106 22 -168 35 -62 12 -115 19
-117 15 -3 -4 -1 -110 5 -236 5 -125 14 -406 20 -623 6 -217 17 -577 25 -800
7 -223 19 -567 25 -765 16 -547 30 -938 40 -1165 6 -113 15 -347 20 -520 6
-173 15 -414 20 -535 6 -121 15 -359 20 -530 6 -170 15 -407 20 -525 6 -118
15 -336 20 -485 6 -148 14 -371 20 -495 6 -124 14 -331 20 -460 5 -129 16
-388 24 -575 9 -187 23 -509 31 -715 8 -206 19 -377 23 -381 13 -11 585 -84
932 -119 162 -16 570 -50 598 -50 l25 0 -7 127 c-4 71 -11 205 -16 298 -5 94
-16 265 -24 382 -16 206 -27 409 -46 818 -9 194 -19 364 -40 720 -5 94 -14
267 -19 385 -11 231 -56 1069 -81 1510 -14 249 -29 545 -40 835 -6 143 -15
334 -20 425 -19 320 -45 836 -60 1180 -9 202 -13 280 -40 750 -5 102 -14 275
-20 385 -5 110 -17 326 -25 480 -9 154 -20 359 -25 455 -21 380 -31 561 -40
700 -5 80 -12 183 -15 230 -15 231 -48 806 -65 1115 -6 110 -15 265 -20 345
-5 80 -14 233 -20 340 -6 107 -15 269 -20 360 -5 91 -14 251 -20 355 -34 625
-41 747 -50 905 -6 96 -15 227 -20 292 -6 64 -10 166 -10 227 l0 111 -27 5
c-38 8 -276 86 -398 130 -55 20 -134 48 -175 62 -41 14 -87 31 -102 39 -31 16
-38 17 -39 7z"/>
<path d="M22445 13634 c-49 -14 -108 -29 -130 -33 -199 -42 -281 -56 -404 -71
-47 -5 -89 -14 -94 -19 -5 -5 17 -45 50 -92 59 -85 174 -264 253 -394 24 -38
92 -150 152 -249 59 -98 117 -190 127 -205 10 -14 121 -197 246 -406 125 -209
244 -407 264 -440 21 -33 61 -98 88 -145 28 -47 81 -134 118 -195 114 -184
237 -387 273 -450 19 -33 42 -73 52 -90 9 -16 63 -106 119 -199 55 -92 101
-170 101 -171 0 -5 148 -243 313 -505 90 -143 187 -301 209 -341 11 -19 84
-132 163 -249 78 -118 141 -220 138 -226 -2 -5 -32 -20 -66 -31 -34 -12 -150
-56 -257 -98 -107 -43 -217 -84 -245 -92 -67 -20 -67 -20 -46 -51 11 -15 50
-76 87 -137 164 -268 284 -467 284 -470 0 -6 87 -151 144 -238 31 -48 56 -89
56 -91 0 -2 25 -46 56 -97 31 -52 65 -107 74 -124 9 -16 58 -97 107 -180 50
-82 108 -181 130 -220 22 -38 91 -153 153 -255 62 -102 121 -198 130 -215 20
-35 121 -206 214 -362 35 -60 103 -173 151 -253 49 -80 103 -170 120 -200 18
-30 63 -104 100 -165 37 -60 96 -157 130 -215 162 -272 192 -321 245 -405 32
-49 67 -106 78 -125 11 -19 70 -118 132 -220 62 -102 121 -198 130 -215 10
-16 52 -86 95 -155 43 -69 126 -204 185 -300 59 -96 137 -224 175 -285 37 -60
75 -123 85 -140 35 -60 133 -221 150 -245 19 -27 172 -275 201 -327 11 -18 27
-48 38 -65 32 -58 133 -220 188 -306 29 -45 53 -85 53 -87 0 -3 20 -36 45 -75
25 -39 45 -72 45 -74 0 -3 23 -42 52 -88 169 -270 203 -325 217 -347 19 -28
23 -36 142 -234 51 -84 105 -171 120 -194 16 -23 29 -44 29 -47 0 -4 24 -43
53 -89 29 -45 65 -103 80 -129 15 -26 31 -49 36 -52 27 -17 1371 572 1371 599
0 3 -30 52 -66 108 -37 56 -98 154 -137 217 -38 63 -102 167 -142 230 -40 63
-103 165 -140 225 -37 61 -110 175 -160 255 -51 80 -143 228 -204 330 -61 102
-129 212 -150 245 -21 33 -75 121 -120 195 -46 74 -95 153 -110 175 -16 22
-30 45 -32 51 -5 14 -124 200 -218 344 -42 63 -87 135 -100 160 -23 43 -48 84
-169 277 -29 45 -52 84 -52 87 0 3 -29 50 -63 104 -35 54 -66 102 -68 108 -2
6 -40 67 -84 137 -142 226 -151 240 -219 350 -36 59 -66 109 -66 112 0 2 -38
63 -85 134 -47 72 -85 133 -85 135 0 3 -29 49 -63 103 -35 54 -112 179 -172
278 -59 99 -140 232 -180 295 -146 233 -204 327 -252 410 -28 47 -81 133 -119
192 -38 60 -102 161 -142 225 -40 65 -97 159 -128 208 -31 50 -64 104 -74 120
-24 42 -107 175 -215 345 -115 180 -243 391 -326 537 -26 45 -107 175 -175
278 -21 33 -41 65 -43 70 -2 6 -18 33 -36 60 -18 28 -63 100 -100 160 -38 61
-98 155 -135 210 -37 55 -96 150 -132 210 -36 61 -102 169 -148 240 -45 72
-115 184 -155 250 -39 66 -92 152 -117 190 -25 39 -65 104 -89 145 -24 41 -67
112 -96 158 -29 45 -53 85 -53 87 0 2 -24 42 -53 87 -51 79 -149 239 -187 303
-9 17 -38 63 -63 103 -26 40 -47 74 -47 77 0 4 -120 193 -226 355 -34 52 -76
122 -94 155 -18 33 -80 138 -139 233 -58 95 -144 235 -190 310 -46 75 -118
193 -159 262 -89 149 -115 191 -259 420 -61 96 -134 216 -164 265 -104 176
-180 285 -197 284 -9 0 -57 -12 -107 -25z"/>
<path d="M19787 13514 c-3 -3 -2 -14 3 -23 15 -29 48 -124 85 -246 20 -66 40
-131 44 -145 5 -14 14 -45 21 -70 18 -63 27 -93 54 -185 33 -108 126 -404 136
-435 10 -29 75 -246 92 -305 6 -22 21 -71 33 -110 13 -38 33 -104 45 -145 12
-41 30 -100 40 -130 9 -30 22 -73 29 -95 6 -22 26 -89 45 -150 19 -60 44 -141
55 -180 12 -38 32 -106 45 -150 36 -116 65 -214 77 -260 6 -22 15 -49 19 -60
4 -11 12 -36 18 -55 5 -19 26 -87 46 -150 19 -63 45 -149 56 -190 12 -41 41
-138 65 -215 24 -77 58 -187 75 -245 55 -188 72 -244 102 -335 17 -49 34 -103
38 -120 16 -58 71 -240 79 -260 5 -11 18 -51 30 -90 34 -113 81 -267 95 -310
7 -22 19 -58 25 -80 7 -22 22 -60 33 -84 11 -25 20 -56 21 -70 l2 -26 -105 -7
c-58 -3 -136 -11 -175 -18 -38 -6 -110 -15 -160 -20 -176 -17 -216 -23 -220
-30 -3 -5 7 -39 21 -76 21 -57 81 -251 114 -369 5 -16 30 -97 55 -180 26 -82
56 -181 66 -220 11 -38 33 -113 49 -165 17 -52 35 -113 41 -135 6 -22 15 -51
20 -65 4 -14 22 -72 39 -130 17 -58 37 -123 44 -145 8 -22 24 -74 36 -115 23
-80 101 -329 131 -420 9 -30 27 -89 39 -130 12 -41 37 -124 56 -185 19 -60 43
-139 54 -175 42 -140 63 -206 75 -235 18 -42 61 -182 115 -372 26 -91 88 -287
140 -443 10 -30 28 -86 39 -125 43 -144 121 -394 160 -510 22 -66 54 -167 71
-225 65 -213 114 -368 130 -405 4 -11 22 -67 40 -125 17 -58 38 -123 45 -145
8 -22 23 -71 34 -110 37 -124 63 -206 127 -400 34 -104 79 -246 99 -315 20
-69 40 -134 44 -145 9 -22 60 -178 166 -510 36 -115 75 -232 86 -259 10 -27
19 -55 19 -62 0 -8 4 -22 10 -32 5 -9 25 -71 45 -137 40 -136 117 -378 180
-570 23 -71 59 -184 80 -250 20 -66 49 -158 64 -205 16 -47 41 -127 57 -177
27 -88 31 -93 57 -93 117 0 1436 209 1476 235 8 5 -137 457 -159 497 -6 10
-10 26 -10 36 0 10 -3 22 -7 25 -10 11 -69 183 -143 417 -40 128 -98 310 -120
375 -6 17 -44 134 -86 260 -42 127 -109 329 -149 450 -40 121 -91 276 -113
345 -23 69 -86 258 -140 420 -55 162 -123 369 -152 460 -28 91 -63 197 -76
235 -28 77 -31 86 -99 300 -27 83 -60 186 -75 230 -15 44 -44 134 -65 200 -66
211 -78 248 -112 342 -18 51 -40 116 -48 145 -8 29 -30 100 -49 158 -36 109
-98 306 -118 375 -6 22 -26 85 -44 140 -18 55 -43 134 -55 175 -12 41 -46 152
-76 245 -30 94 -64 197 -74 230 -11 33 -48 148 -83 255 -35 107 -76 236 -91
285 -15 50 -40 128 -55 175 -15 47 -38 119 -50 160 -13 41 -37 120 -55 175
-18 55 -52 161 -75 235 -84 270 -92 295 -100 315 -9 21 -38 109 -95 285 -18
58 -70 215 -114 350 -44 135 -102 310 -127 390 -26 80 -64 197 -84 260 -50
152 -104 327 -130 420 -12 41 -25 86 -30 100 -5 14 -39 120 -75 235 -37 116
-98 309 -137 430 -66 208 -82 259 -127 408 -34 112 -113 362 -121 382 -4 11
-13 40 -21 65 -7 25 -27 90 -45 145 -17 55 -58 181 -89 280 -31 99 -65 202
-76 229 -10 27 -19 55 -19 64 0 8 -9 42 -20 76 -33 103 -106 337 -130 416 -12
41 -41 134 -64 205 -24 72 -49 150 -56 175 -7 25 -16 56 -21 70 -20 60 -78
270 -89 320 -6 30 -17 66 -24 80 l-12 25 -224 6 c-219 7 -348 18 -459 39 -61
11 -95 13 -104 4z"/>
</g>
</svg>
